<svg width="34" height="34" viewBox="0 0 34 34" fill="none" xmlns="http://www.w3.org/2000/svg">
<g clip-path="url(#clip0_643_1593)">
<path d="M17 32.7858C25.7183 32.7858 32.7857 25.7184 32.7857 17.0001C32.7857 8.28186 25.7183 1.21436 17 1.21436C8.28179 1.21436 1.21428 8.28186 1.21428 17.0001C1.21428 25.7184 8.28179 32.7858 17 32.7858Z" stroke="white" stroke-width="2" stroke-linecap="round" stroke-linejoin="round"/>
<path d="M8.98572 25.5C10.2 21.1286 14.8143 18.4572 19.4286 19.6715C22.1 20.4 24.2857 22.5858 25.2571 25.5" stroke="white" stroke-width="2" stroke-linecap="round" stroke-linejoin="round"/>
<path d="M11.7786 13.2358C11.4433 13.2358 11.1714 12.9639 11.1714 12.6286C11.1714 12.2933 11.4433 12.0215 11.7786 12.0215" stroke="white" stroke-width="2" stroke-linecap="round" stroke-linejoin="round"/>
<path d="M11.7786 13.2358C12.1139 13.2358 12.3857 12.9639 12.3857 12.6286C12.3857 12.2933 12.1139 12.0215 11.7786 12.0215" stroke="white" stroke-width="2" stroke-linecap="round" stroke-linejoin="round"/>
<path d="M22.4643 13.2358C22.1289 13.2358 21.8571 12.9639 21.8571 12.6286C21.8571 12.2933 22.1289 12.0215 22.4643 12.0215" stroke="white" stroke-width="2" stroke-linecap="round" stroke-linejoin="round"/>
<path d="M22.4643 13.2358C22.7996 13.2358 23.0714 12.9639 23.0714 12.6286C23.0714 12.2933 22.7996 12.0215 22.4643 12.0215" stroke="white" stroke-width="2" stroke-linecap="round" stroke-linejoin="round"/>
</g>
<defs>
<clipPath id="clip0_643_1593">
<rect width="34" height="34" fill="white"/>
</clipPath>
</defs>
</svg>
