<svg width="34" height="34" viewBox="0 0 34 34" fill="none" xmlns="http://www.w3.org/2000/svg">
<g clip-path="url(#clip0_643_1609)">
<path d="M17 32.7858C25.7183 32.7858 32.7857 25.7184 32.7857 17.0001C32.7857 8.28186 25.7183 1.21436 17 1.21436C8.28179 1.21436 1.21429 8.28186 1.21429 17.0001C1.21429 25.7184 8.28179 32.7858 17 32.7858Z" stroke="white" stroke-width="2" stroke-linecap="round" stroke-linejoin="round"/>
<path d="M8.98571 19.4287C10.2 23.8001 15.0571 26.4716 19.4286 25.2573C22.1 24.2859 24.2857 22.1001 25.0143 19.4287" stroke="white" stroke-width="2" stroke-linecap="round" stroke-linejoin="round"/>
<path d="M11.6571 13.2358C11.3218 13.2358 11.05 12.9639 11.05 12.6286C11.05 12.2933 11.3218 12.0215 11.6571 12.0215" stroke="white" stroke-width="2" stroke-linecap="round" stroke-linejoin="round"/>
<path d="M11.6571 13.2358C11.9925 13.2358 12.2643 12.9639 12.2643 12.6286C12.2643 12.2933 11.9925 12.0215 11.6571 12.0215" stroke="white" stroke-width="2" stroke-linecap="round" stroke-linejoin="round"/>
<path d="M22.3429 13.2358C22.0075 13.2358 21.7357 12.9639 21.7357 12.6286C21.7357 12.2933 22.0075 12.0215 22.3429 12.0215" stroke="white" stroke-width="2" stroke-linecap="round" stroke-linejoin="round"/>
<path d="M22.3429 13.2358C22.6782 13.2358 22.95 12.9639 22.95 12.6286C22.95 12.2933 22.6782 12.0215 22.3429 12.0215" stroke="white" stroke-width="2" stroke-linecap="round" stroke-linejoin="round"/>
</g>
<defs>
<clipPath id="clip0_643_1609">
<rect width="34" height="34" fill="white"/>
</clipPath>
</defs>
</svg>
