<svg width="15" height="19" viewBox="0 0 15 19" fill="none" xmlns="http://www.w3.org/2000/svg">
<g clip-path="url(#clip0_558_1544)">
<path d="M10.8727 4.34753C9.48446 4.34753 8.34782 5.17519 7.6211 5.17519C6.84782 5.17519 5.8416 4.40211 4.63042 4.40211C2.32919 4.40211 0 6.25752 0 9.7501C0 11.933 0.857141 14.2341 1.92857 15.7166C2.84161 16.9718 3.64286 17.9995 4.79814 17.9995C5.93478 17.9995 6.43787 17.2628 7.85404 17.2628C9.28882 17.2628 9.61491 17.9813 10.8727 17.9813C12.1211 17.9813 12.9503 16.8626 13.7422 15.7621C14.618 14.4978 14.9907 13.27 15 13.2063C14.9255 13.1881 12.5404 12.2331 12.5404 9.56821C12.5404 7.25801 14.413 6.22117 14.5248 6.1393C13.2857 4.40211 11.3944 4.34753 10.8727 4.34753ZM10.2205 2.8741C10.7888 2.20105 11.1894 1.28243 11.1894 0.354716C11.1894 0.227381 11.1801 0.100048 11.1615 0C10.2298 0.0363812 9.11178 0.600286 8.45032 1.36429C7.91924 1.94638 7.43478 2.8741 7.43478 3.80182C7.43478 3.94733 7.46273 4.08377 7.47205 4.12925C7.52795 4.13835 7.6211 4.15654 7.72359 4.15654C8.55278 4.15654 9.59627 3.61083 10.2205 2.8741Z" fill="white"/>
</g>
<defs>
<clipPath id="clip0_558_1544">
<rect width="15" height="19" fill="white"/>
</clipPath>
</defs>
</svg>
