<svg width="234" height="76" viewBox="0 0 234 76" fill="none" xmlns="http://www.w3.org/2000/svg">
<path fill-rule="evenodd" clip-rule="evenodd" d="M6.16404 37.3199L6.17603 37.3885L6.17603 49.9106V50.0084H6.17715C6.22926 52.2686 8.08209 54.0848 10.3601 54.0848C12.6382 54.0848 14.491 52.2686 14.5431 50.0084H14.5508V36.103H14.5573C14.5769 33.4876 16.7016 31.3744 19.3298 31.3744C21.9426 31.3744 24.0579 33.4631 24.1017 36.0574H24.0957V36.09V49.4841C24.0742 49.6558 24.063 49.8308 24.063 50.0084C24.063 52.3138 25.9363 54.1826 28.2471 54.1826C30.1134 54.1826 31.6942 52.9637 32.2334 51.2803C32.3692 50.8903 32.4486 50.4739 32.4619 50.041H32.4705V50.0084V36.103H32.4771H32.4835C32.4834 36.0428 32.4828 35.9826 32.4818 35.9225C32.5952 33.3911 34.6822 31.3744 37.2496 31.3744C39.8734 31.3744 41.9954 33.4806 42.022 36.09H42.0154V49.4841C41.9938 49.6558 41.9827 49.8308 41.9827 50.0084C41.9827 52.3138 43.856 54.1826 46.1668 54.1826C48.4667 54.1826 50.3332 52.3314 50.3508 50.041H50.3902V36.103H50.4033C50.3837 28.8699 44.5064 23.0195 37.2561 23.0195C33.7947 23.0195 30.6447 24.3544 28.2963 26.5361C25.9485 24.3539 22.799 23.0195 19.3363 23.0195C15.7985 23.0195 12.5844 24.414 10.2183 26.6818C9.79252 26.0995 9.33422 25.5386 8.85202 25.0063C7.98905 24.0605 6.97572 23.2518 5.92315 22.5278C5.47206 22.2408 4.98827 22.0843 4.46526 22.0647C3.94225 21.9473 3.41923 21.9734 2.90276 22.1365C1.99403 22.3843 1.00684 23.0887 0.555743 23.9366C0.104645 24.7845 -0.176474 25.9389 0.150409 26.9434L0.15044 26.9434L0.150448 26.9435L0.150457 26.9435L0.150466 26.9435L0.150474 26.9435L0.150483 26.9435L0.150491 26.9436L0.1505 26.9436L0.150508 26.9436L0.150517 26.9436C0.281234 27.2566 0.411951 27.5696 0.542668 27.876C0.889163 28.463 1.35987 28.9326 1.94826 29.2783L1.94827 29.2783C1.99691 29.3125 2.04556 29.3466 2.0942 29.381C2.65805 29.8588 3.17732 30.3831 3.65403 30.9479C4.25156 31.7793 4.76296 32.6644 5.19127 33.5938C5.47905 34.3452 5.71212 35.1134 5.89047 35.8984C5.99788 36.3682 6.08092 36.8439 6.16404 37.3199Z" fill="url(#paint0_linear_671_1776)"/>
<path d="M63.9754 52.2197C60.7381 52.2197 58.3285 51.3774 56.7464 49.6929C55.1791 47.9937 54.3954 45.4009 54.3954 41.9146C54.3954 38.4575 55.1644 35.8354 56.7025 34.0483C58.2406 32.2466 60.5038 31.3457 63.492 31.3457C66.1581 31.3457 68.1649 32.21 69.5126 33.9385C70.8749 35.667 71.556 38.2012 71.556 41.541C71.556 41.6875 71.4754 41.8926 71.3143 42.1562C71.1678 42.4053 70.9847 42.6323 70.765 42.8374C70.5599 43.0278 70.3841 43.123 70.2376 43.123H57.911C58.0721 45.3057 58.6288 46.9023 59.5809 47.9131C60.5477 48.9092 61.9979 49.4072 63.9315 49.4072C65.0155 49.4072 65.9457 49.2754 66.722 49.0117C67.513 48.748 68.2748 48.4258 69.0072 48.0449C69.0804 48.0156 69.1903 47.9644 69.3368 47.8911C69.4833 47.8179 69.5858 47.7812 69.6444 47.7812C69.8055 47.7812 69.9886 47.9131 70.1937 48.1768C70.4134 48.4258 70.5965 48.7114 70.743 49.0337C70.9042 49.3413 70.9847 49.5684 70.9847 49.7148C70.9847 50.0371 70.6625 50.396 70.0179 50.7915C69.3734 51.187 68.5091 51.5239 67.4251 51.8022C66.3558 52.0806 65.2059 52.2197 63.9754 52.2197ZM68.0624 40.3105C68.0624 36.209 66.5023 34.1582 63.3822 34.1582C60.0277 34.1582 58.204 36.209 57.911 40.3105H68.0624ZM98.2959 31.3457C99.9218 31.3457 101.35 31.8071 102.581 32.73C103.811 33.6528 104.426 35.2935 104.426 37.6519V51.209C104.426 51.502 104.302 51.7217 104.053 51.8682C103.804 52 103.408 52.0659 102.866 52.0659H102.734C102.178 52.0659 101.775 52 101.526 51.8682C101.277 51.7217 101.152 51.502 101.152 51.209V37.9814C101.152 36.7949 100.83 35.8647 100.185 35.1909C99.5556 34.5171 98.6254 34.1802 97.395 34.1802C96.3696 34.1802 95.4394 34.4805 94.6044 35.0811C93.7841 35.667 93.1176 36.2822 92.6049 36.9268C92.6342 37.2783 92.6489 37.542 92.6489 37.7178V51.209C92.6489 51.7803 92.1215 52.0659 91.0668 52.0659H90.913C89.873 52.0659 89.353 51.7803 89.353 51.209V37.9814C89.353 36.7949 89.0307 35.8647 88.3862 35.1909C87.7563 34.5171 86.8261 34.1802 85.5957 34.1802C84.746 34.1802 83.9697 34.3853 83.2666 34.7954C82.5634 35.1909 81.9775 35.623 81.5087 36.0918C81.0546 36.5605 80.8276 36.8242 80.8276 36.8828V51.209C80.8276 51.502 80.7031 51.7217 80.4541 51.8682C80.2197 52 79.8315 52.0659 79.2895 52.0659H79.1137C78.5717 52.0659 78.1762 52 77.9272 51.8682C77.6928 51.7217 77.5756 51.502 77.5756 51.209V37.498C77.5756 35.7988 77.4951 34.5757 77.3339 33.8286C77.1728 33.0669 77.0922 32.6494 77.0922 32.5762C77.0922 32.2539 77.3339 32.0269 77.8173 31.895C78.3154 31.7485 78.7768 31.6753 79.2016 31.6753C79.5678 31.6753 79.8388 31.873 80.0146 32.2686C80.1904 32.6641 80.3149 33.0669 80.3881 33.4771C80.476 33.8872 80.5346 34.1509 80.5639 34.2681C81.2817 33.4331 82.1606 32.7373 83.2006 32.1807C84.2407 31.624 85.3393 31.3457 86.4965 31.3457C87.6831 31.3457 88.789 31.5874 89.8144 32.0708C90.8398 32.5396 91.5942 33.3745 92.0776 34.5757C92.8833 33.6235 93.8281 32.8472 94.9121 32.2466C95.996 31.646 97.124 31.3457 98.2959 31.3457ZM119.477 52.2197C116.532 52.2197 114.284 51.3408 112.731 49.583C111.193 47.8105 110.424 45.2397 110.424 41.8706C110.424 38.5015 111.208 35.9087 112.775 34.0923C114.342 32.2612 116.576 31.3457 119.477 31.3457C122.348 31.3457 124.545 32.2539 126.068 34.0703C127.592 35.8721 128.354 38.4722 128.354 41.8706C128.354 45.2544 127.599 47.8252 126.09 49.583C124.596 51.3408 122.392 52.2197 119.477 52.2197ZM119.367 49.4072C121.271 49.4072 122.677 48.792 123.585 47.5615C124.494 46.3164 124.948 44.3975 124.948 41.8047C124.948 39.1973 124.494 37.271 123.585 36.0259C122.677 34.7808 121.271 34.1582 119.367 34.1582C117.477 34.1582 116.085 34.7808 115.192 36.0259C114.298 37.2563 113.852 39.1826 113.852 41.8047C113.852 44.4121 114.291 46.3311 115.17 47.5615C116.064 48.792 117.462 49.4072 119.367 49.4072ZM136.505 52.0659C135.948 52.0659 135.545 52 135.296 51.8682C135.047 51.7217 134.923 51.502 134.923 51.209V37.498C134.923 35.7988 134.842 34.5757 134.681 33.8286C134.52 33.0669 134.439 32.6494 134.439 32.5762C134.439 32.2539 134.681 32.0269 135.164 31.895C135.662 31.7485 136.131 31.6753 136.57 31.6753C136.922 31.6753 137.186 31.8657 137.361 32.2466C137.537 32.6128 137.691 33.1328 137.823 33.8066L137.933 34.2681C139.324 32.3198 140.833 31.3457 142.459 31.3457C143.206 31.3457 143.77 31.4849 144.151 31.7632C144.532 32.0269 144.722 32.3857 144.722 32.8398C144.722 33.2793 144.642 33.748 144.481 34.2461C144.334 34.7295 144.158 34.9712 143.953 34.9712C143.851 34.9712 143.668 34.9272 143.404 34.8394C143.17 34.7368 142.935 34.6636 142.701 34.6196C142.466 34.561 142.166 34.5317 141.8 34.5317C141.199 34.5317 140.628 34.7075 140.086 35.0591C139.559 35.4106 139.112 35.7988 138.746 36.2236C138.38 36.6484 138.196 36.8828 138.196 36.9268V51.209C138.196 51.502 138.072 51.7217 137.823 51.8682C137.574 52 137.186 52.0659 136.658 52.0659H136.505ZM151.555 26.6436C150.515 26.6436 149.995 26.3579 149.995 25.7866V23.4795C149.995 22.9082 150.515 22.6226 151.555 22.6226H152.016C153.071 22.6226 153.598 22.9082 153.598 23.4795V25.7866C153.598 26.3579 153.071 26.6436 152.016 26.6436H151.555ZM151.709 52.0659C150.669 52.0659 150.149 51.7803 150.149 51.209V32.3564C150.149 31.7852 150.669 31.4995 151.709 31.4995H151.863C152.917 31.4995 153.445 31.7852 153.445 32.3564V51.209C153.445 51.7803 152.917 52.0659 151.863 52.0659H151.709ZM160.167 52C160.006 52 159.823 51.7656 159.618 51.2969C159.413 50.8135 159.31 50.3813 159.31 50.0005C159.31 49.854 159.347 49.7075 159.42 49.561L170.868 34.3779H160.87C160.592 34.3779 160.394 34.29 160.277 34.1143C160.16 33.9238 160.101 33.6235 160.101 33.2134V32.73C160.101 32.3198 160.16 32.0269 160.277 31.8511C160.394 31.6606 160.592 31.5654 160.87 31.5654H174.581C174.757 31.5654 174.933 31.8071 175.109 32.2905C175.285 32.7739 175.372 33.2061 175.372 33.5869C175.372 33.7188 175.343 33.8579 175.285 34.0044L163.881 49.1875H174.625C174.904 49.1875 175.101 49.2827 175.219 49.4731C175.336 49.6489 175.394 49.9419 175.394 50.3521V50.8354C175.394 51.231 175.336 51.5239 175.219 51.7144C175.101 51.9048 174.904 52 174.625 52H160.167ZM182.842 26.6436C181.802 26.6436 181.282 26.3579 181.282 25.7866V23.4795C181.282 22.9082 181.802 22.6226 182.842 22.6226H183.304C184.358 22.6226 184.886 22.9082 184.886 23.4795V25.7866C184.886 26.3579 184.358 26.6436 183.304 26.6436H182.842ZM182.996 52.0659C181.956 52.0659 181.436 51.7803 181.436 51.209V32.3564C181.436 31.7852 181.956 31.4995 182.996 31.4995H183.15C184.205 31.4995 184.732 31.7852 184.732 32.3564V51.209C184.732 51.7803 184.205 52.0659 183.15 52.0659H182.996ZM194.091 52.0659C193.535 52.0659 193.132 52 192.883 51.8682C192.634 51.7217 192.509 51.502 192.509 51.209V37.498C192.509 35.7988 192.429 34.5757 192.268 33.8286C192.107 33.0669 192.026 32.6494 192.026 32.5762C192.026 32.2539 192.268 32.0269 192.751 31.895C193.249 31.7485 193.718 31.6753 194.157 31.6753C194.523 31.6753 194.794 31.873 194.97 32.2686C195.146 32.6641 195.271 33.0669 195.344 33.4771C195.432 33.8872 195.49 34.1509 195.52 34.2681C196.34 33.3452 197.285 32.6274 198.354 32.1147C199.438 31.6021 200.529 31.3457 201.628 31.3457C203.62 31.3457 205.173 31.9097 206.286 33.0376C207.414 34.1509 207.978 35.689 207.978 37.6519V51.209C207.978 51.502 207.854 51.7217 207.605 51.8682C207.356 52 206.96 52.0659 206.418 52.0659H206.242C205.715 52.0659 205.327 52 205.078 51.8682C204.829 51.7217 204.704 51.502 204.704 51.209V37.9814C204.704 36.7803 204.353 35.8501 203.649 35.1909C202.961 34.5171 201.987 34.1802 200.727 34.1802C199.848 34.1802 198.962 34.4292 198.068 34.9272C197.19 35.4106 196.428 36.0771 195.783 36.9268V51.209C195.783 51.502 195.659 51.7217 195.41 51.8682C195.161 52 194.773 52.0659 194.245 52.0659H194.091ZM221.688 60.2837C219.198 60.2837 217.228 59.8955 215.777 59.1191C214.327 58.3428 213.602 57.1196 213.602 55.4497C213.602 54.3071 213.932 53.311 214.591 52.4614C215.25 51.6118 216.107 50.9746 217.162 50.5498L217.206 50.4619C216.693 50.0664 216.298 49.6123 216.019 49.0996C215.756 48.5869 215.624 47.979 215.624 47.2759C215.624 45.5767 216.356 44.2144 217.821 43.189C216.722 42.6616 215.887 41.9219 215.316 40.9697C214.745 40.0029 214.459 38.9189 214.459 37.7178C214.459 36.5166 214.752 35.4326 215.338 34.4658C215.939 33.499 216.818 32.7373 217.975 32.1807C219.132 31.624 220.524 31.3457 222.15 31.3457C223.014 31.3457 223.783 31.4189 224.457 31.5654H231.554C231.832 31.5654 232.03 31.6606 232.147 31.8511C232.279 32.0269 232.345 32.3198 232.345 32.73V33.2134C232.345 33.6235 232.279 33.9238 232.147 34.1143C232.03 34.29 231.832 34.3779 231.554 34.3779C230.572 34.3779 229.664 34.3413 228.829 34.2681L228.785 34.334C229.122 34.8027 229.371 35.3301 229.532 35.916C229.708 36.4873 229.796 37.0879 229.796 37.7178C229.796 38.9189 229.496 40.0029 228.895 40.9697C228.309 41.9365 227.438 42.6982 226.28 43.2549C225.138 43.8115 223.746 44.0898 222.106 44.0898C220.875 44.1338 219.945 44.3608 219.315 44.771C218.7 45.1812 218.392 45.855 218.392 46.7925C218.392 47.481 218.612 48.0083 219.051 48.3745C219.506 48.7407 220.069 48.9971 220.743 49.1436C221.417 49.29 222.355 49.4292 223.556 49.561L224.698 49.6929C225.914 49.854 226.932 50.0737 227.753 50.3521C228.573 50.6304 229.247 51.0918 229.774 51.7363C230.316 52.3809 230.587 53.2671 230.587 54.395C230.587 56.2847 229.833 57.7349 228.324 58.7456C226.815 59.771 224.603 60.2837 221.688 60.2837ZM222.106 41.4971C223.541 41.4971 224.684 41.2041 225.533 40.6182C226.383 40.0322 226.808 39.0728 226.808 37.7397C226.808 35.2202 225.24 33.9604 222.106 33.9604C219.015 33.9604 217.469 35.2202 217.469 37.7397C217.469 39.0728 217.887 40.0322 218.722 40.6182C219.571 41.2041 220.699 41.4971 222.106 41.4971ZM222.106 57.625C223.922 57.625 225.27 57.3833 226.149 56.8999C227.027 56.4312 227.467 55.7134 227.467 54.7466C227.467 54.1167 227.233 53.626 226.764 53.2744C226.295 52.9375 225.716 52.6958 225.028 52.5493C224.354 52.4175 223.461 52.293 222.347 52.1758C221.586 52.0879 220.956 52.0073 220.458 51.9341C219.974 51.8608 219.527 51.7583 219.117 51.6265C217.389 52.3589 216.525 53.4209 216.525 54.8125C216.525 56.6875 218.385 57.625 222.106 57.625Z" fill="#2B5DEF"/>
<path d="M56.7464 49.6929L55.2763 51.0489C55.2804 51.0533 55.2845 51.0577 55.2885 51.062L56.7464 49.6929ZM56.7025 34.0483L58.2184 35.353L58.2236 35.3469L56.7025 34.0483ZM69.5126 33.9385L67.9353 35.1682L67.9418 35.1765L69.5126 33.9385ZM71.3143 42.1562L69.6077 41.1133C69.6019 41.1229 69.5961 41.1325 69.5904 41.1422L71.3143 42.1562ZM70.765 42.8374L72.1259 44.303L72.1296 44.2995L70.765 42.8374ZM57.911 43.123V41.123C57.355 41.123 56.8241 41.3545 56.4456 41.7619C56.0672 42.1693 55.8755 42.7158 55.9164 43.2703L57.911 43.123ZM59.5809 47.9131L58.1251 49.2845C58.1319 49.2917 58.1388 49.2989 58.1457 49.306L59.5809 47.9131ZM66.722 49.0117L66.0896 47.1143L66.0789 47.118L66.722 49.0117ZM69.0072 48.0449L68.2644 46.188C68.2031 46.2125 68.143 46.24 68.0845 46.2705L69.0072 48.0449ZM70.1937 48.1768L68.615 49.4046C68.6404 49.4372 68.6667 49.469 68.694 49.5L70.1937 48.1768ZM70.743 49.0337L68.9223 49.8613C68.9377 49.8952 68.9541 49.9287 68.9714 49.9617L70.743 49.0337ZM67.4251 51.8022L66.9278 49.8651L66.9214 49.8667L67.4251 51.8022ZM68.0624 40.3105V42.3105C69.1669 42.3105 70.0624 41.4151 70.0624 40.3105H68.0624ZM57.911 40.3105L55.9161 40.1681C55.8765 40.7218 56.0689 41.2671 56.4473 41.6735C56.8256 42.0798 57.3558 42.3105 57.911 42.3105V40.3105ZM63.9754 50.2197C61.0635 50.2197 59.2769 49.4659 58.2043 48.3237L55.2885 51.062C57.38 53.289 60.4127 54.2197 63.9754 54.2197V50.2197ZM58.2165 48.3368C57.1276 47.1563 56.3954 45.1471 56.3954 41.9146H52.3954C52.3954 45.6546 53.2305 48.831 55.2763 51.0489L58.2165 48.3368ZM56.3954 41.9146C56.3954 38.7185 57.1102 36.6406 58.2184 35.353L55.1866 32.7437C53.2186 35.0303 52.3954 38.1965 52.3954 41.9146H56.3954ZM58.2236 35.3469C59.2861 34.1023 60.9237 33.3457 63.492 33.3457V29.3457C60.0839 29.3457 57.1951 30.3909 55.1814 32.7498L58.2236 35.3469ZM63.492 33.3457C65.6899 33.3457 67.0493 34.0318 67.9353 35.1682L71.0898 32.7087C69.2805 30.3881 66.6262 29.3457 63.492 29.3457V33.3457ZM67.9418 35.1765C68.9146 36.4108 69.556 38.4291 69.556 41.541H73.556C73.556 37.9733 72.8351 34.9232 71.0833 32.7005L67.9418 35.1765ZM69.556 41.541C69.556 41.3975 69.5753 41.2855 69.5914 41.2151C69.6078 41.1437 69.6255 41.0952 69.6341 41.0734C69.6494 41.0344 69.6498 41.0445 69.6077 41.1133L73.0209 43.1992C73.2039 42.8996 73.556 42.283 73.556 41.541H69.556ZM69.5904 41.1422C69.5454 41.2188 69.4851 41.2962 69.4004 41.3753L72.1296 44.2995C72.4843 43.9685 72.7902 43.5918 73.0382 43.1703L69.5904 41.1422ZM69.4041 41.3718C69.3798 41.3944 69.4211 41.3503 69.5268 41.2931C69.6296 41.2373 69.8791 41.123 70.2376 41.123V45.123C71.1838 45.123 71.8468 44.5622 72.1259 44.303L69.4041 41.3718ZM70.2376 41.123H57.911V45.123H70.2376V41.123ZM55.9164 43.2703C56.093 45.6626 56.7219 47.7949 58.1251 49.2845L61.0367 46.5417C60.5356 46.0098 60.0512 44.9487 59.9056 42.9758L55.9164 43.2703ZM58.1457 49.306C59.6175 50.8223 61.6742 51.4072 63.9315 51.4072V47.4072C62.3216 47.4072 61.478 46.996 61.0161 46.5201L58.1457 49.306ZM63.9315 51.4072C65.168 51.4072 66.3271 51.258 67.3652 50.9055L66.0789 47.118C65.5642 47.2928 64.8629 47.4072 63.9315 47.4072V51.4072ZM67.3545 50.9091C68.2443 50.6125 69.1032 50.2493 69.9299 49.8194L68.0845 46.2705C67.4464 46.6023 66.7818 46.8836 66.0896 47.1144L67.3545 50.9091ZM69.75 49.9019C69.9044 49.8401 70.0759 49.7576 70.2312 49.68L68.4423 46.1023C68.38 46.1334 68.3328 46.1562 68.2987 46.1721C68.2618 46.1894 68.2531 46.1925 68.2644 46.188L69.75 49.9019ZM70.2312 49.68C70.2645 49.6633 70.2482 49.6736 70.1962 49.6922C70.1688 49.702 70.113 49.7208 70.0354 49.7384C69.9643 49.7545 69.8257 49.7812 69.6444 49.7812V45.7812C69.2664 45.7812 68.9658 45.8842 68.8509 45.9252C68.6963 45.9804 68.5556 46.0456 68.4423 46.1023L70.2312 49.68ZM69.6444 49.7812C69.1676 49.7812 68.8505 49.5871 68.734 49.5032C68.6157 49.418 68.5791 49.3585 68.615 49.4046L71.7724 46.9489C71.6032 46.7314 71.3726 46.4741 71.0712 46.2571C70.7716 46.0413 70.2823 45.7812 69.6444 45.7812V49.7812ZM68.694 49.5C68.7744 49.5911 68.8523 49.7073 68.9223 49.8613L72.5638 48.2061C72.3408 47.7155 72.0524 47.2604 71.6934 46.8535L68.694 49.5ZM68.9714 49.9617C69.0255 50.065 69.0411 50.1083 69.0394 50.1035C69.0379 50.0993 69.0265 50.0669 69.0146 50.0116C69.0032 49.959 68.9847 49.8552 68.9847 49.7148H72.9847C72.9847 49.3141 72.8831 48.9742 72.8091 48.7659C72.7269 48.534 72.6217 48.31 72.5147 48.1057L68.9714 49.9617ZM68.9847 49.7148C68.9847 49.1872 69.2459 48.8995 69.2549 48.8895C69.2708 48.8718 69.2622 48.8847 69.2105 48.925C69.1604 48.9641 69.0833 49.0185 68.9719 49.0869L71.064 52.4961C71.4686 52.2478 71.8897 51.9422 72.2311 51.562C72.5624 51.193 72.9847 50.5647 72.9847 49.7148H68.9847ZM68.9719 49.0869C68.5581 49.3408 67.9018 49.615 66.9278 49.8651L67.9225 53.7394C69.1165 53.4329 70.1887 53.0333 71.064 52.4961L68.9719 49.0869ZM66.9214 49.8667C66.034 50.0977 65.0549 50.2197 63.9754 50.2197V54.2197C65.3569 54.2197 66.6777 54.0634 67.9289 53.7378L66.9214 49.8667ZM70.0624 40.3105C70.0624 38.063 69.6448 36.0112 68.4841 34.4854C67.2448 32.8563 65.4197 32.1582 63.3822 32.1582V36.1582C64.4648 36.1582 64.9798 36.4855 65.3005 36.9072C65.6999 37.4321 66.0624 38.4566 66.0624 40.3105H70.0624ZM63.3822 32.1582C61.2715 32.1582 59.3782 32.822 58.004 34.3672C56.685 35.8504 56.079 37.8865 55.9161 40.1681L59.9059 40.453C60.0359 38.6331 60.4883 37.593 60.993 37.0253C61.4426 36.5198 62.1384 36.1582 63.3822 36.1582V32.1582ZM57.911 42.3105H68.0624V38.3105H57.911V42.3105ZM104.053 51.8682L104.988 53.6357C105.015 53.6218 105.041 53.6072 105.067 53.592L104.053 51.8682ZM101.526 51.8682L100.512 53.592C100.538 53.6072 100.564 53.6218 100.59 53.6357L101.526 51.8682ZM100.185 35.1909L98.7244 36.5567C98.7297 36.5623 98.7349 36.5678 98.7402 36.5734L100.185 35.1909ZM94.6044 35.0811L95.7669 36.7085L95.7723 36.7047L94.6044 35.0811ZM92.6049 36.9268L91.0397 35.6817C90.7226 36.0804 90.5695 36.5851 90.6118 37.0928L92.6049 36.9268ZM88.3862 35.1909L86.9251 36.5567C86.9304 36.5623 86.9356 36.5678 86.9409 36.5734L88.3862 35.1909ZM83.2666 34.7954L84.2471 36.5386C84.2562 36.5334 84.2653 36.5282 84.2743 36.523L83.2666 34.7954ZM81.5087 36.0918L80.0945 34.6776C80.087 34.6851 80.0796 34.6926 80.0723 34.7002L81.5087 36.0918ZM80.4541 51.8682L81.4346 53.6113C81.4458 53.605 81.457 53.5986 81.4681 53.592L80.4541 51.8682ZM77.9272 51.8682L76.8672 53.5642C76.9077 53.5895 76.9492 53.6134 76.9914 53.6357L77.9272 51.8682ZM77.3339 33.8286L75.3772 34.2425L75.3789 34.2503L77.3339 33.8286ZM77.8173 31.895L78.3436 33.8245C78.3563 33.8211 78.369 33.8175 78.3817 33.8138L77.8173 31.895ZM80.3881 33.4771L78.4193 33.8286C78.4233 33.8512 78.4277 33.8737 78.4325 33.8961L80.3881 33.4771ZM80.5639 34.2681L78.6236 34.7531C78.8049 35.4784 79.3756 36.042 80.103 36.2142C80.8304 36.3865 81.5932 36.1387 82.0806 35.5718L80.5639 34.2681ZM89.8144 32.0708L88.9616 33.8799C88.9687 33.8832 88.9758 33.8865 88.9829 33.8897L89.8144 32.0708ZM92.0776 34.5757L90.2222 35.3224C90.4839 35.9728 91.0671 36.4386 91.7593 36.5502C92.4515 36.6618 93.1515 36.4028 93.6044 35.8676L92.0776 34.5757ZM98.2959 33.3457C99.5155 33.3457 100.517 33.6822 101.381 34.33L103.781 31.13C102.183 29.9321 100.328 29.3457 98.2959 29.3457V33.3457ZM101.381 34.33C101.884 34.7075 102.426 35.5781 102.426 37.6519H106.426C106.426 35.0088 105.738 32.5981 103.781 31.13L101.381 34.33ZM102.426 37.6519V51.209H106.426V37.6519H102.426ZM102.426 51.209C102.426 51.0657 102.459 50.8434 102.593 50.6075C102.727 50.3702 102.905 50.223 103.039 50.1443L105.067 53.592C105.937 53.08 106.426 52.1984 106.426 51.209H102.426ZM103.117 50.1006C103.185 50.0643 103.234 50.048 103.252 50.0427C103.27 50.0371 103.268 50.0391 103.24 50.0437C103.182 50.0535 103.063 50.0659 102.866 50.0659V54.0659C103.486 54.0659 104.291 54.0049 104.988 53.6357L103.117 50.1006ZM102.866 50.0659H102.734V54.0659H102.866V50.0659ZM102.734 50.0659C102.528 50.0659 102.402 50.0532 102.338 50.0427C102.308 50.0378 102.304 50.0355 102.322 50.0408C102.339 50.0459 102.39 50.0626 102.462 50.1006L100.59 53.6357C101.292 54.0075 102.111 54.0659 102.734 54.0659V50.0659ZM102.54 50.1443C102.674 50.223 102.851 50.3702 102.986 50.6075C103.119 50.8434 103.152 51.0657 103.152 51.209H99.1523C99.1523 52.1984 99.6414 53.08 100.512 53.592L102.54 50.1443ZM103.152 51.209V37.9814H99.1523V51.209H103.152ZM103.152 37.9814C103.152 36.4262 102.721 34.9483 101.631 33.8085L98.7402 36.5734C98.939 36.7812 99.1523 37.1636 99.1523 37.9814H103.152ZM101.647 33.8252C100.524 32.6245 98.9861 32.1802 97.395 32.1802V36.1802C98.2647 36.1802 98.587 36.4097 98.7244 36.5567L101.647 33.8252ZM97.395 32.1802C95.9491 32.1802 94.6107 32.6129 93.4366 33.4574L95.7723 36.7047C96.2682 36.348 96.7901 36.1802 97.395 36.1802V32.1802ZM93.442 33.4536C92.5028 34.1244 91.6907 34.8633 91.0397 35.6817L94.1701 38.1718C94.5445 37.7011 95.0655 37.2096 95.7669 36.7085L93.442 33.4536ZM90.6118 37.0928C90.6401 37.4324 90.6489 37.6284 90.6489 37.7178H94.6489C94.6489 37.4556 94.6283 37.1242 94.598 36.7607L90.6118 37.0928ZM90.6489 37.7178V51.209H94.6489V37.7178H90.6489ZM90.6489 51.209C90.6489 51.033 90.6934 50.7848 90.8467 50.5357C90.9969 50.2917 91.1838 50.1565 91.3008 50.0931C91.4069 50.0356 91.4589 50.0342 91.4036 50.0442C91.3528 50.0534 91.2459 50.0659 91.0668 50.0659V54.0659C91.7093 54.0659 92.5047 53.9901 93.2059 53.6103C93.5866 53.4041 93.9713 53.0904 94.2533 52.6321C94.5385 52.1687 94.6489 51.6706 94.6489 51.209H90.6489ZM91.0668 50.0659H90.913V54.0659H91.0668V50.0659ZM90.913 50.0659C90.7389 50.0659 90.6368 50.0535 90.5907 50.0451C90.5404 50.0358 90.5965 50.0387 90.7059 50.0987C90.8265 50.165 91.0125 50.3027 91.1603 50.5463C91.3105 50.7939 91.353 51.0382 91.353 51.209H87.353C87.353 51.6654 87.4605 52.1597 87.7407 52.6215C88.0185 53.0793 88.3995 53.3956 88.7801 53.6046C89.481 53.9896 90.2754 54.0659 90.913 54.0659V50.0659ZM91.353 51.209V37.9814H87.353V51.209H91.353ZM91.353 37.9814C91.353 36.4262 90.9217 34.9483 89.8315 33.8085L86.9409 36.5734C87.1397 36.7812 87.353 37.1636 87.353 37.9814H91.353ZM89.8472 33.8252C88.7249 32.6245 87.1868 32.1802 85.5957 32.1802V36.1802C86.4654 36.1802 86.7877 36.4097 86.9251 36.5567L89.8472 33.8252ZM85.5957 32.1802C84.4081 32.1802 83.2815 32.4713 82.2588 33.0679L84.2743 36.523C84.6579 36.2992 85.084 36.1802 85.5957 36.1802V32.1802ZM82.286 33.0523C81.4571 33.5185 80.7165 34.0556 80.0945 34.6776L82.923 37.506C83.2385 37.1905 83.6698 36.8633 84.2471 36.5386L82.286 33.0523ZM80.0723 34.7002C79.8371 34.9429 79.6345 35.1593 79.4823 35.3361C79.41 35.4201 79.3187 35.53 79.2352 35.6485C79.1954 35.7051 79.1274 35.8054 79.0614 35.9332C79.036 35.9824 78.8276 36.3611 78.8276 36.8828H82.8276C82.8276 37.1779 82.7611 37.4026 82.7255 37.5081C82.6852 37.6278 82.6415 37.7181 82.6151 37.7693C82.5632 37.8696 82.5166 37.9361 82.5051 37.9523C82.4784 37.9903 82.4722 37.994 82.5134 37.9462C82.5883 37.8592 82.7263 37.7094 82.9452 37.4834L80.0723 34.7002ZM78.8276 36.8828V51.209H82.8276V36.8828H78.8276ZM78.8276 51.209C78.8276 51.0657 78.8605 50.8434 78.9942 50.6075C79.1286 50.3702 79.3062 50.223 79.44 50.1443L81.4681 53.592C82.3385 53.08 82.8276 52.1984 82.8276 51.209H78.8276ZM79.4735 50.125C79.5562 50.0785 79.6182 50.0567 79.644 50.0485C79.6705 50.0401 79.6757 50.0407 79.6523 50.0447C79.6297 50.0485 79.5886 50.0541 79.5258 50.0586C79.4634 50.063 79.3852 50.0659 79.2895 50.0659V54.0659C79.892 54.0659 80.7252 54.0103 81.4346 53.6113L79.4735 50.125ZM79.2895 50.0659H79.1137V54.0659H79.2895V50.0659ZM79.1137 50.0659C78.9173 50.0659 78.7983 50.0535 78.7394 50.0437C78.7119 50.0391 78.7101 50.0371 78.7281 50.0427C78.7455 50.048 78.7945 50.0643 78.863 50.1006L76.9914 53.6357C77.6887 54.0049 78.4943 54.0659 79.1137 54.0659V50.0659ZM78.9872 50.1722C79.1335 50.2636 79.3044 50.4202 79.4282 50.6523C79.5493 50.8793 79.5756 51.0852 79.5756 51.209H75.5756C75.5756 52.1416 76.0069 53.0265 76.8672 53.5642L78.9872 50.1722ZM79.5756 51.209V37.498H75.5756V51.209H79.5756ZM79.5756 37.498C79.5756 35.7861 79.4985 34.3785 79.289 33.4069L75.3789 34.2503C75.4916 34.7729 75.5756 35.8116 75.5756 37.498H79.5756ZM79.2906 33.4147C79.2109 33.0376 79.1533 32.7565 79.1164 32.5652C79.0977 32.4683 79.0866 32.4062 79.0809 32.3716C79.078 32.3537 79.0785 32.355 79.0802 32.3689C79.0811 32.3761 79.0834 32.3949 79.0857 32.4214C79.0875 32.4422 79.0922 32.4998 79.0922 32.5762H75.0922C75.0922 32.7895 75.1306 33.0003 75.1338 33.0197C75.1482 33.1077 75.1673 33.2114 75.1889 33.3232C75.2326 33.5494 75.2959 33.8579 75.3772 34.2425L79.2906 33.4147ZM79.0922 32.5762C79.0922 32.7521 79.0577 32.9543 78.9682 33.1578C78.8792 33.3601 78.7578 33.5139 78.6429 33.6219C78.4344 33.8177 78.2695 33.8447 78.3436 33.8245L77.2911 29.9655C76.8818 30.0771 76.3543 30.2836 75.9042 30.7065C75.3941 31.1856 75.0922 31.8451 75.0922 32.5762H79.0922ZM78.3817 33.8138C78.7355 33.7097 79.0047 33.6753 79.2016 33.6753V29.6753C78.5489 29.6753 77.8953 29.7874 77.253 29.9763L78.3817 33.8138ZM79.2016 33.6753C79.0019 33.6753 78.7391 33.6132 78.5006 33.4392C78.2826 33.2801 78.201 33.1123 78.187 33.0808L81.8422 31.4563C81.6525 31.0293 81.3474 30.5648 80.8585 30.208C80.349 29.8363 79.7676 29.6753 79.2016 29.6753V33.6753ZM78.187 33.0808C78.2998 33.3348 78.3755 33.5832 78.4193 33.8286L82.357 33.1255C82.2543 32.5506 82.0809 31.9934 81.8422 31.4563L78.187 33.0808ZM78.4325 33.8961C78.5185 34.2972 78.5845 34.5965 78.6236 34.7531L82.5042 33.783C82.4848 33.7053 82.4336 33.4772 82.3437 33.058L78.4325 33.8961ZM82.0806 35.5718C82.6262 34.9371 83.3064 34.3925 84.1444 33.944L82.2569 30.4173C81.0148 31.0821 79.9372 31.9291 79.0473 32.9643L82.0806 35.5718ZM84.1444 33.944C84.9 33.5396 85.6752 33.3457 86.4965 33.3457V29.3457C85.0035 29.3457 83.5814 29.7085 82.2569 30.4173L84.1444 33.944ZM86.4965 33.3457C87.4023 33.3457 88.2154 33.5281 88.9616 33.8799L90.6672 30.2617C89.3627 29.6467 87.9638 29.3457 86.4965 29.3457V33.3457ZM88.9829 33.8897C89.4727 34.1137 89.8996 34.5206 90.2222 35.3224L93.933 33.829C93.2888 32.2284 92.2069 30.9654 90.6459 30.2519L88.9829 33.8897ZM93.6044 35.8676C94.2545 35.0992 95.0108 34.4783 95.8813 33.996L93.9428 30.4972C92.6454 31.216 91.512 32.1478 90.5508 33.2838L93.6044 35.8676ZM95.8813 33.996C96.6863 33.55 97.4827 33.3457 98.2959 33.3457V29.3457C96.7652 29.3457 95.3057 29.742 93.9428 30.4972L95.8813 33.996ZM112.731 49.583L111.22 50.8938C111.224 50.8983 111.228 50.9027 111.232 50.9071L112.731 49.583ZM112.775 34.0923L114.289 35.3989L114.294 35.3929L112.775 34.0923ZM126.068 34.0703L124.536 35.3555L124.541 35.3616L126.068 34.0703ZM126.09 49.583L124.573 48.2804L124.567 48.2877L126.09 49.583ZM123.585 47.5615L125.195 48.7492L125.201 48.7401L123.585 47.5615ZM115.192 36.0259L116.81 37.2011L116.817 37.192L115.192 36.0259ZM115.17 47.5615L113.543 48.724C113.546 48.7283 113.549 48.7325 113.552 48.7367L115.17 47.5615ZM119.477 50.2197C116.948 50.2197 115.31 49.4815 114.23 48.2589L111.232 50.9071C113.258 53.2001 116.116 54.2197 119.477 54.2197V50.2197ZM114.242 48.2722C113.132 46.994 112.424 44.9648 112.424 41.8706H108.424C108.424 45.5147 109.253 48.6271 111.22 50.8938L114.242 48.2722ZM112.424 41.8706C112.424 38.7887 113.141 36.729 114.289 35.3989L111.261 32.7857C109.274 35.0884 108.424 38.2142 108.424 41.8706H112.424ZM114.294 35.3929C115.404 34.096 117.03 33.3457 119.477 33.3457V29.3457C116.122 29.3457 113.28 30.4265 111.256 32.7917L114.294 35.3929ZM119.477 33.3457C121.894 33.3457 123.473 34.0877 124.536 35.3555L127.601 32.7851C125.617 30.4201 122.802 29.3457 119.477 29.3457V33.3457ZM124.541 35.3616C125.649 36.6723 126.354 38.7409 126.354 41.8706H130.354C130.354 38.2034 129.534 35.0718 127.596 32.779L124.541 35.3616ZM126.354 41.8706C126.354 44.9916 125.654 47.0205 124.573 48.2804L127.608 50.8856C129.544 48.6299 130.354 45.5172 130.354 41.8706H126.354ZM124.567 48.2877C123.549 49.4851 121.972 50.2197 119.477 50.2197V54.2197C122.811 54.2197 125.644 53.1965 127.614 50.8783L124.567 48.2877ZM119.367 51.4072C121.733 51.4072 123.817 50.6156 125.195 48.7492L121.976 46.3738C121.538 46.9684 120.81 47.4072 119.367 47.4072V51.4072ZM125.201 48.7401C126.478 46.9893 126.948 44.5599 126.948 41.8047H122.948C122.948 44.235 122.509 45.6435 121.97 46.3829L125.201 48.7401ZM126.948 41.8047C126.948 39.0378 126.479 36.5996 125.201 34.8473L121.97 37.2045C122.508 37.9424 122.948 39.3567 122.948 41.8047H126.948ZM125.201 34.8473C123.827 32.9635 121.741 32.1582 119.367 32.1582V36.1582C120.801 36.1582 121.527 36.598 121.97 37.2045L125.201 34.8473ZM119.367 32.1582C117.001 32.1582 114.925 32.9678 113.567 34.8598L116.817 37.192C117.246 36.5938 117.953 36.1582 119.367 36.1582V32.1582ZM113.574 34.8507C112.309 36.5921 111.852 39.0336 111.852 41.8047H115.852C115.852 39.3316 116.288 37.9206 116.81 37.2011L113.574 34.8507ZM111.852 41.8047C111.852 44.5597 112.301 46.9865 113.543 48.724L116.797 46.399C116.281 45.6756 115.852 44.2645 115.852 41.8047H111.852ZM113.552 48.7367C114.916 50.6156 117.002 51.4072 119.367 51.4072V47.4072C117.923 47.4072 117.211 46.9683 116.788 46.3863L113.552 48.7367ZM135.296 51.8682L134.282 53.592C134.308 53.6072 134.334 53.6218 134.36 53.6357L135.296 51.8682ZM134.681 33.8286L132.724 34.2425L132.726 34.2503L134.681 33.8286ZM135.164 31.895L135.69 33.8245C135.703 33.8211 135.716 33.8175 135.729 33.8138L135.164 31.895ZM137.361 32.2466L135.546 33.0847C135.55 33.0938 135.554 33.103 135.558 33.112L137.361 32.2466ZM137.823 33.8066L135.86 34.1907C135.865 34.2172 135.871 34.2436 135.877 34.2699L137.823 33.8066ZM137.933 34.2681L135.987 34.7313C136.169 35.494 136.779 36.0803 137.549 36.2308C138.318 36.3814 139.105 36.0685 139.56 35.4305L137.933 34.2681ZM144.151 31.7632L142.971 33.378C142.985 33.388 142.999 33.3979 143.013 33.4076L144.151 31.7632ZM144.481 34.2461L142.578 33.6305C142.574 33.6423 142.57 33.6542 142.567 33.6661L144.481 34.2461ZM143.404 34.8394L142.602 36.6717C142.658 36.6959 142.714 36.7176 142.771 36.7367L143.404 34.8394ZM142.701 34.6196L142.216 36.5599C142.254 36.5696 142.293 36.578 142.332 36.5854L142.701 34.6196ZM140.086 35.0591L138.998 33.3812C138.991 33.3857 138.984 33.3903 138.977 33.395L140.086 35.0591ZM137.823 51.8682L138.759 53.6357C138.785 53.6218 138.811 53.6072 138.837 53.592L137.823 51.8682ZM136.505 50.0659C136.298 50.0659 136.172 50.0532 136.108 50.0427C136.078 50.0378 136.075 50.0355 136.092 50.0408C136.109 50.0459 136.16 50.0626 136.232 50.1006L134.36 53.6357C135.062 54.0075 135.881 54.0659 136.505 54.0659V50.0659ZM136.31 50.1443C136.444 50.223 136.621 50.3702 136.756 50.6075C136.89 50.8434 136.923 51.0657 136.923 51.209H132.923C132.923 52.1984 133.412 53.08 134.282 53.592L136.31 50.1443ZM136.923 51.209V37.498H132.923V51.209H136.923ZM136.923 37.498C136.923 35.7861 136.845 34.3785 136.636 33.4069L132.726 34.2503C132.838 34.7729 132.923 35.8116 132.923 37.498H136.923ZM136.638 33.4147C136.558 33.0376 136.5 32.7565 136.463 32.5652C136.445 32.4683 136.433 32.4062 136.428 32.3716C136.425 32.3537 136.425 32.355 136.427 32.3689C136.428 32.3761 136.43 32.3949 136.433 32.4214C136.434 32.4422 136.439 32.4998 136.439 32.5762H132.439C132.439 32.7895 132.477 33.0003 132.481 33.0197C132.495 33.1077 132.514 33.2114 132.536 33.3232C132.579 33.5494 132.643 33.8579 132.724 34.2425L136.638 33.4147ZM136.439 32.5762C136.439 32.7521 136.405 32.9543 136.315 33.1578C136.226 33.3601 136.105 33.5139 135.99 33.6219C135.781 33.8177 135.616 33.8447 135.69 33.8245L134.638 29.9655C134.229 30.0771 133.701 30.2836 133.251 30.7065C132.741 31.1856 132.439 31.8451 132.439 32.5762H136.439ZM135.729 33.8138C136.076 33.7117 136.353 33.6753 136.57 33.6753V29.6753C135.909 29.6753 135.249 29.7854 134.6 29.9763L135.729 33.8138ZM136.57 33.6753C136.362 33.6753 136.098 33.6106 135.861 33.4395C135.645 33.2832 135.561 33.1182 135.546 33.0847L139.177 31.4085C138.986 30.9941 138.683 30.5434 138.203 30.1968C137.702 29.8352 137.131 29.6753 136.57 29.6753V33.6753ZM135.558 33.112C135.627 33.2559 135.742 33.5859 135.86 34.1907L139.786 33.4226C139.64 32.6798 139.447 31.9696 139.165 31.3811L135.558 33.112ZM135.877 34.2699L135.987 34.7313L139.878 33.8048L139.769 33.3434L135.877 34.2699ZM139.56 35.4305C140.763 33.7463 141.745 33.3457 142.459 33.3457V29.3457C139.922 29.3457 137.885 30.8934 136.305 33.1056L139.56 35.4305ZM142.459 33.3457C142.715 33.3457 142.875 33.3701 142.963 33.3918C143.049 33.4131 143.033 33.4234 142.971 33.378L145.331 30.1484C144.46 29.5118 143.401 29.3457 142.459 29.3457V33.3457ZM143.013 33.4076C142.977 33.3831 142.887 33.3079 142.813 33.1675C142.737 33.0256 142.722 32.9006 142.722 32.8398H146.722C146.722 31.7138 146.197 30.7471 145.289 30.1188L143.013 33.4076ZM142.722 32.8398C142.722 33.0347 142.686 33.2944 142.578 33.6305L146.384 34.8617C146.597 34.2017 146.722 33.5239 146.722 32.8398H142.722ZM142.567 33.6661C142.52 33.8202 142.518 33.756 142.621 33.6136C142.728 33.4665 143.16 32.9712 143.953 32.9712V36.9712C144.952 36.9712 145.574 36.3551 145.856 35.9663C146.136 35.5821 146.295 35.1554 146.395 34.8261L142.567 33.6661ZM143.953 32.9712C144.01 32.9712 144.057 32.9742 144.089 32.9771C144.123 32.9801 144.148 32.9836 144.165 32.9862C144.198 32.9912 144.213 32.9952 144.206 32.9935C144.2 32.9921 144.183 32.9877 144.153 32.9788C144.123 32.97 144.084 32.958 144.036 32.942L142.771 36.7367C143.004 36.8142 143.481 36.9712 143.953 36.9712V32.9712ZM144.206 33.007C143.842 32.8481 143.463 32.7277 143.069 32.6539L142.332 36.5854C142.407 36.5994 142.497 36.6255 142.602 36.6717L144.206 33.007ZM143.186 32.6793C142.734 32.5663 142.255 32.5317 141.8 32.5317V36.5317C141.931 36.5317 142.032 36.5371 142.106 36.5443C142.142 36.5478 142.169 36.5516 142.188 36.5547C142.207 36.5578 142.216 36.56 142.216 36.5599L143.186 32.6793ZM141.8 32.5317C140.784 32.5317 139.838 32.836 138.998 33.3812L141.174 36.737C141.418 36.579 141.615 36.5317 141.8 36.5317V32.5317ZM138.977 33.395C138.318 33.8342 137.73 34.3393 137.231 34.9178L140.261 37.5295C140.494 37.2584 140.8 36.9871 141.195 36.7232L138.977 33.395ZM137.231 34.9178C137.042 35.1373 136.879 35.331 136.758 35.4867C136.7 35.5605 136.627 35.6568 136.56 35.7589C136.528 35.8068 136.472 35.8952 136.416 36.0069C136.409 36.0203 136.196 36.4049 136.196 36.9268H140.196C140.196 37.0931 140.175 37.2299 140.156 37.3236C140.137 37.4199 140.113 37.4991 140.093 37.5564C140.056 37.6675 140.016 37.7511 139.994 37.7958C139.949 37.8846 139.91 37.9441 139.902 37.9573C139.88 37.9898 139.876 37.9927 139.91 37.9493C139.971 37.8707 140.084 37.7348 140.261 37.5295L137.231 34.9178ZM136.196 36.9268V51.209H140.196V36.9268H136.196ZM136.196 51.209C136.196 51.0657 136.229 50.8434 136.363 50.6075C136.497 50.3702 136.675 50.223 136.809 50.1443L138.837 53.592C139.707 53.08 140.196 52.1984 140.196 51.209H136.196ZM136.887 50.1006C136.952 50.0661 136.999 50.0501 137.017 50.0446C137.036 50.0389 137.035 50.0405 137.01 50.0447C136.957 50.0538 136.845 50.0659 136.658 50.0659V54.0659C137.274 54.0659 138.066 54.0022 138.759 53.6357L136.887 50.1006ZM136.658 50.0659H136.505V54.0659H136.658V50.0659ZM151.555 24.6436C151.381 24.6436 151.279 24.6311 151.233 24.6227C151.182 24.6135 151.238 24.6163 151.348 24.6764C151.468 24.7426 151.654 24.8803 151.802 25.124C151.952 25.3715 151.995 25.6158 151.995 25.7866H147.995C147.995 26.2431 148.102 26.7373 148.383 27.1991C148.66 27.657 149.041 27.9732 149.422 28.1823C150.123 28.5673 150.917 28.6436 151.555 28.6436V24.6436ZM151.995 25.7866V23.4795H147.995V25.7866H151.995ZM151.995 23.4795C151.995 23.6503 151.952 23.8946 151.802 24.1422C151.654 24.3858 151.468 24.5235 151.348 24.5897C151.238 24.6498 151.182 24.6526 151.233 24.6434C151.279 24.635 151.381 24.6226 151.555 24.6226V20.6226C150.917 20.6226 150.123 20.6988 149.422 21.0838C149.041 21.2929 148.66 21.6092 148.383 22.067C148.102 22.5288 147.995 23.023 147.995 23.4795H151.995ZM151.555 24.6226H152.016V20.6226H151.555V24.6226ZM152.016 24.6226C152.195 24.6226 152.302 24.6351 152.353 24.6443C152.408 24.6543 152.356 24.6529 152.25 24.5954C152.133 24.532 151.946 24.3968 151.796 24.1528C151.643 23.9036 151.598 23.6554 151.598 23.4795H155.598C155.598 23.0179 155.488 22.5198 155.203 22.0564C154.921 21.5981 154.536 21.2844 154.155 21.0782C153.454 20.6984 152.659 20.6226 152.016 20.6226V24.6226ZM151.598 23.4795V25.7866H155.598V23.4795H151.598ZM151.598 25.7866C151.598 25.6107 151.643 25.3625 151.796 25.1133C151.946 24.8693 152.133 24.7341 152.25 24.6707C152.356 24.6132 152.408 24.6118 152.353 24.6218C152.302 24.631 152.195 24.6436 152.016 24.6436V28.6436C152.659 28.6436 153.454 28.5678 154.155 28.1879C154.536 27.9817 154.921 27.668 155.203 27.2097C155.488 26.7463 155.598 26.2482 155.598 25.7866H151.598ZM152.016 24.6436H151.555V28.6436H152.016V24.6436ZM151.709 50.0659C151.535 50.0659 151.433 50.0535 151.386 50.0451C151.336 50.0358 151.392 50.0387 151.502 50.0987C151.622 50.165 151.808 50.3027 151.956 50.5463C152.106 50.7939 152.149 51.0382 152.149 51.209H148.149C148.149 51.6654 148.256 52.1597 148.536 52.6215C148.814 53.0793 149.195 53.3956 149.576 53.6046C150.277 53.9896 151.071 54.0659 151.709 54.0659V50.0659ZM152.149 51.209V32.3564H148.149V51.209H152.149ZM152.149 32.3564C152.149 32.5272 152.106 32.7716 151.956 33.0191C151.808 33.2627 151.622 33.4005 151.502 33.4667C151.392 33.5268 151.336 33.5296 151.386 33.5204C151.433 33.5119 151.535 33.4995 151.709 33.4995V29.4995C151.071 29.4995 150.277 29.5758 149.576 29.9608C149.195 30.1699 148.814 30.4861 148.536 30.944C148.256 31.4057 148.149 31.9 148.149 32.3564H152.149ZM151.709 33.4995H151.863V29.4995H151.709V33.4995ZM151.863 33.4995C152.042 33.4995 152.149 33.5121 152.199 33.5212C152.255 33.5312 152.203 33.5298 152.097 33.4723C151.98 33.409 151.793 33.2738 151.642 33.0297C151.489 32.7806 151.445 32.5324 151.445 32.3564H155.445C155.445 31.8949 155.334 31.3967 155.049 30.9333C154.767 30.4751 154.382 30.1613 154.002 29.9552C153.3 29.5753 152.505 29.4995 151.863 29.4995V33.4995ZM151.445 32.3564V51.209H155.445V32.3564H151.445ZM151.445 51.209C151.445 51.033 151.489 50.7848 151.642 50.5357C151.793 50.2917 151.98 50.1565 152.097 50.0931C152.203 50.0356 152.255 50.0342 152.199 50.0442C152.149 50.0534 152.042 50.0659 151.863 50.0659V54.0659C152.505 54.0659 153.3 53.9901 154.002 53.6103C154.382 53.4041 154.767 53.0904 155.049 52.6321C155.334 52.1687 155.445 51.6706 155.445 51.209H151.445ZM151.863 50.0659H151.709V54.0659H151.863V50.0659ZM159.618 51.2969L157.777 52.078C157.78 52.0848 157.783 52.0917 157.786 52.0985L159.618 51.2969ZM159.42 49.561L157.823 48.357C157.75 48.4541 157.686 48.5578 157.631 48.6666L159.42 49.561ZM170.868 34.3779L172.465 35.582C172.922 34.9764 172.996 34.1646 172.658 33.4858C172.32 32.807 171.626 32.3779 170.868 32.3779V34.3779ZM160.277 34.1143L158.574 35.1625C158.587 35.1831 158.6 35.2035 158.613 35.2237L160.277 34.1143ZM160.277 31.8511L161.941 32.9605C161.955 32.9403 161.968 32.9199 161.981 32.8993L160.277 31.8511ZM175.285 34.0044L176.884 35.2055C176.989 35.0647 177.076 34.9106 177.141 34.7472L175.285 34.0044ZM163.881 49.1875L162.282 47.9864C161.826 48.5923 161.753 49.4034 162.092 50.0813C162.43 50.7592 163.123 51.1875 163.881 51.1875V49.1875ZM175.219 49.4731L173.515 50.5213C173.528 50.542 173.541 50.5624 173.555 50.5825L175.219 49.4731ZM175.219 51.7144L173.515 50.6662L175.219 51.7144ZM160.167 50C160.631 50 160.975 50.1718 161.168 50.3029C161.352 50.4282 161.453 50.5522 161.485 50.5929C161.545 50.669 161.526 50.6693 161.45 50.4952L157.786 52.0985C157.915 52.3932 158.091 52.7451 158.333 53.0555C158.503 53.2728 159.108 54 160.167 54V50ZM161.459 50.5158C161.322 50.1919 161.31 50.0319 161.31 50.0005H157.31C157.31 50.7308 157.504 51.435 157.777 52.078L161.459 50.5158ZM161.31 50.0005C161.31 50.1995 161.258 50.3574 161.209 50.4555L157.631 48.6666C157.436 49.0577 157.31 49.5085 157.31 50.0005H161.31ZM161.017 50.7651L172.465 35.582L169.271 33.1739L157.823 48.357L161.017 50.7651ZM170.868 32.3779H160.87V36.3779H170.868V32.3779ZM160.87 32.3779C160.934 32.3779 161.107 32.3871 161.326 32.4844C161.564 32.5904 161.784 32.7695 161.941 33.0049L158.613 35.2237C159.215 36.1272 160.16 36.3779 160.87 36.3779V32.3779ZM161.981 33.0661C162.035 33.154 162.066 33.2281 162.083 33.2764C162.1 33.3247 162.107 33.3558 162.108 33.3632C162.11 33.3735 162.101 33.3303 162.101 33.2134H158.101C158.101 33.7297 158.16 34.4896 158.574 35.1625L161.981 33.0661ZM162.101 33.2134V32.73H158.101V33.2134H162.101ZM162.101 32.73C162.101 32.6116 162.111 32.5745 162.107 32.5949C162.104 32.6076 162.095 32.6478 162.073 32.7071C162.051 32.7663 162.011 32.8563 161.941 32.9605L158.613 30.7417C158.152 31.4339 158.101 32.2366 158.101 32.73H162.101ZM161.981 32.8993C161.842 33.1237 161.634 33.3171 161.381 33.4388C161.147 33.5517 160.954 33.5654 160.87 33.5654V29.5654C160.093 29.5654 159.147 29.8714 158.574 30.8029L161.981 32.8993ZM160.87 33.5654H174.581V29.5654H160.87V33.5654ZM174.581 33.5654C174.141 33.5654 173.797 33.4082 173.58 33.2588C173.379 33.1202 173.268 32.9783 173.228 32.923C173.154 32.8222 173.166 32.8011 173.229 32.974L176.988 31.607C176.875 31.2966 176.712 30.913 176.463 30.5704C176.258 30.2897 175.65 29.5654 174.581 29.5654V33.5654ZM173.229 32.974C173.351 33.3102 173.372 33.505 173.372 33.5869H177.372C177.372 32.9071 177.218 32.2377 176.988 31.607L173.229 32.974ZM173.372 33.5869C173.372 33.4196 173.41 33.3059 173.428 33.2616L177.141 34.7472C177.276 34.4099 177.372 34.0179 177.372 33.5869H173.372ZM173.685 32.8033L162.282 47.9864L165.48 50.3886L176.884 35.2055L173.685 32.8033ZM163.881 51.1875H174.625V47.1875H163.881V51.1875ZM174.625 51.1875C174.542 51.1875 174.349 51.1737 174.115 51.0609C173.862 50.9392 173.653 50.7457 173.515 50.5213L176.922 48.4249C176.349 47.4934 175.402 47.1875 174.625 47.1875V51.1875ZM173.555 50.5825C173.485 50.4784 173.445 50.3883 173.423 50.3292C173.401 50.2699 173.392 50.2297 173.389 50.2169C173.385 50.1966 173.394 50.2337 173.394 50.3521H177.394C177.394 49.8587 177.344 49.056 176.883 48.3637L173.555 50.5825ZM173.394 50.3521V50.8354H177.394V50.3521H173.394ZM173.394 50.8354C173.394 50.941 173.386 50.976 173.389 50.9596C173.391 50.9492 173.398 50.917 173.416 50.8688C173.433 50.8206 173.464 50.7495 173.515 50.6662L176.922 52.7626C177.331 52.0976 177.394 51.3538 177.394 50.8354H173.394ZM173.515 50.6662C173.653 50.4418 173.862 50.2483 174.115 50.1266C174.349 50.0138 174.542 50 174.625 50V54C175.402 54 176.349 53.6941 176.922 52.7626L173.515 50.6662ZM174.625 50H160.167V54H174.625V50ZM182.842 24.6436C182.668 24.6436 182.566 24.6311 182.52 24.6227C182.47 24.6135 182.526 24.6163 182.635 24.6764C182.756 24.7426 182.942 24.8803 183.089 25.124C183.24 25.3715 183.282 25.6158 183.282 25.7866H179.282C179.282 26.2431 179.39 26.7373 179.67 27.1991C179.948 27.657 180.329 27.9732 180.709 28.1823C181.41 28.5673 182.205 28.6436 182.842 28.6436V24.6436ZM183.282 25.7866V23.4795H179.282V25.7866H183.282ZM183.282 23.4795C183.282 23.6503 183.24 23.8946 183.089 24.1422C182.942 24.3858 182.756 24.5235 182.635 24.5897C182.526 24.6498 182.47 24.6526 182.52 24.6434C182.566 24.635 182.668 24.6226 182.842 24.6226V20.6226C182.205 20.6226 181.41 20.6988 180.709 21.0838C180.329 21.2929 179.948 21.6092 179.67 22.067C179.39 22.5288 179.282 23.023 179.282 23.4795H183.282ZM182.842 24.6226H183.304V20.6226H182.842V24.6226ZM183.304 24.6226C183.483 24.6226 183.59 24.6351 183.64 24.6443C183.696 24.6543 183.644 24.6529 183.538 24.5954C183.421 24.532 183.234 24.3968 183.084 24.1528C182.93 23.9036 182.886 23.6554 182.886 23.4795H186.886C186.886 23.0179 186.775 22.5198 186.49 22.0564C186.208 21.5981 185.823 21.2844 185.443 21.0782C184.742 20.6984 183.946 20.6226 183.304 20.6226V24.6226ZM182.886 23.4795V25.7866H186.886V23.4795H182.886ZM182.886 25.7866C182.886 25.6107 182.93 25.3625 183.084 25.1133C183.234 24.8693 183.421 24.7341 183.538 24.6707C183.644 24.6132 183.696 24.6118 183.64 24.6218C183.59 24.631 183.483 24.6436 183.304 24.6436V28.6436C183.946 28.6436 184.742 28.5678 185.443 28.1879C185.823 27.9817 186.208 27.668 186.49 27.2097C186.775 26.7463 186.886 26.2482 186.886 25.7866H182.886ZM183.304 24.6436H182.842V28.6436H183.304V24.6436ZM182.996 50.0659C182.822 50.0659 182.72 50.0535 182.674 50.0451C182.623 50.0358 182.68 50.0387 182.789 50.0987C182.909 50.165 183.095 50.3027 183.243 50.5463C183.394 50.7939 183.436 51.0382 183.436 51.209H179.436C179.436 51.6654 179.543 52.1597 179.824 52.6215C180.102 53.0793 180.483 53.3956 180.863 53.6046C181.564 53.9896 182.358 54.0659 182.996 54.0659V50.0659ZM183.436 51.209V32.3564H179.436V51.209H183.436ZM183.436 32.3564C183.436 32.5272 183.394 32.7716 183.243 33.0191C183.095 33.2627 182.909 33.4005 182.789 33.4667C182.68 33.5268 182.623 33.5296 182.674 33.5204C182.72 33.5119 182.822 33.4995 182.996 33.4995V29.4995C182.358 29.4995 181.564 29.5758 180.863 29.9608C180.483 30.1699 180.102 30.4861 179.824 30.944C179.543 31.4057 179.436 31.9 179.436 32.3564H183.436ZM182.996 33.4995H183.15V29.4995H182.996V33.4995ZM183.15 33.4995C183.329 33.4995 183.436 33.5121 183.487 33.5212C183.542 33.5312 183.49 33.5298 183.384 33.4723C183.267 33.409 183.08 33.2738 182.93 33.0297C182.776 32.7806 182.732 32.5324 182.732 32.3564H186.732C186.732 31.8949 186.621 31.3967 186.336 30.9333C186.054 30.4751 185.67 30.1613 185.289 29.9552C184.588 29.5753 183.792 29.4995 183.15 29.4995V33.4995ZM182.732 32.3564V51.209H186.732V32.3564H182.732ZM182.732 51.209C182.732 51.033 182.776 50.7848 182.93 50.5357C183.08 50.2917 183.267 50.1565 183.384 50.0931C183.49 50.0356 183.542 50.0342 183.487 50.0442C183.436 50.0534 183.329 50.0659 183.15 50.0659V54.0659C183.792 54.0659 184.588 53.9901 185.289 53.6103C185.67 53.4041 186.054 53.0904 186.336 52.6321C186.621 52.1687 186.732 51.6706 186.732 51.209H182.732ZM183.15 50.0659H182.996V54.0659H183.15V50.0659ZM192.883 51.8682L191.869 53.592C191.895 53.6072 191.921 53.6218 191.947 53.6357L192.883 51.8682ZM192.268 33.8286L190.311 34.2425L190.313 34.2503L192.268 33.8286ZM192.751 31.895L193.277 33.8245C193.29 33.8211 193.303 33.8175 193.315 33.8138L192.751 31.895ZM195.344 33.4771L193.375 33.8286C193.379 33.8512 193.383 33.8737 193.388 33.8961L195.344 33.4771ZM195.52 34.2681L193.579 34.7531C193.759 35.4726 194.322 36.0335 195.043 36.2103C195.763 36.3872 196.522 36.1511 197.014 35.5968L195.52 34.2681ZM198.354 32.1147L197.499 30.3067L197.489 30.3113L198.354 32.1147ZM206.286 33.0376L204.863 34.4425C204.869 34.4487 204.875 34.4549 204.881 34.461L206.286 33.0376ZM207.605 51.8682L208.54 53.6357C208.567 53.6218 208.593 53.6072 208.619 53.592L207.605 51.8682ZM205.078 51.8682L204.064 53.592C204.089 53.6072 204.116 53.6218 204.142 53.6357L205.078 51.8682ZM203.649 35.1909L202.251 36.6203C202.261 36.6303 202.271 36.6402 202.282 36.65L203.649 35.1909ZM198.068 34.9272L199.032 36.6797L199.042 36.6742L198.068 34.9272ZM195.783 36.9268L194.19 35.718C193.926 36.0657 193.783 36.4903 193.783 36.9268H195.783ZM195.41 51.8682L196.346 53.6357C196.372 53.6218 196.398 53.6072 196.424 53.592L195.41 51.8682ZM194.091 50.0659C193.885 50.0659 193.759 50.0532 193.695 50.0427C193.665 50.0378 193.662 50.0355 193.679 50.0408C193.696 50.0459 193.747 50.0626 193.819 50.1006L191.947 53.6357C192.649 54.0075 193.468 54.0659 194.091 54.0659V50.0659ZM193.897 50.1443C194.031 50.223 194.208 50.3702 194.343 50.6075C194.476 50.8434 194.509 51.0657 194.509 51.209H190.509C190.509 52.1984 190.998 53.08 191.869 53.592L193.897 50.1443ZM194.509 51.209V37.498H190.509V51.209H194.509ZM194.509 37.498C194.509 35.7861 194.432 34.3785 194.223 33.4069L190.313 34.2503C190.425 34.7729 190.509 35.8116 190.509 37.498H194.509ZM194.224 33.4147C194.145 33.0376 194.087 32.7565 194.05 32.5652C194.031 32.4683 194.02 32.4062 194.015 32.3716C194.012 32.3537 194.012 32.355 194.014 32.3689C194.015 32.3761 194.017 32.3949 194.019 32.4214C194.021 32.4422 194.026 32.4998 194.026 32.5762H190.026C190.026 32.7895 190.064 33.0003 190.067 33.0197C190.082 33.1077 190.101 33.2114 190.123 33.3232C190.166 33.5494 190.23 33.8579 190.311 34.2425L194.224 33.4147ZM194.026 32.5762C194.026 32.7521 193.991 32.9543 193.902 33.1578C193.813 33.3601 193.692 33.5139 193.577 33.6219C193.368 33.8177 193.203 33.8447 193.277 33.8245L192.225 29.9655C191.815 30.0771 191.288 30.2836 190.838 30.7065C190.328 31.1856 190.026 31.8451 190.026 32.5762H194.026ZM193.315 33.8138C193.662 33.7117 193.94 33.6753 194.157 33.6753V29.6753C193.496 29.6753 192.836 29.7854 192.187 29.9763L193.315 33.8138ZM194.157 33.6753C193.958 33.6753 193.695 33.6132 193.456 33.4392C193.238 33.2801 193.157 33.1123 193.143 33.0808L196.798 31.4563C196.608 31.0293 196.303 30.5648 195.814 30.208C195.305 29.8363 194.723 29.6753 194.157 29.6753V33.6753ZM193.143 33.0808C193.256 33.3348 193.331 33.5832 193.375 33.8286L197.313 33.1255C197.21 32.5506 197.037 31.9934 196.798 31.4563L193.143 33.0808ZM193.388 33.8961C193.474 34.2972 193.54 34.5965 193.579 34.7531L197.46 33.783C197.44 33.7053 197.389 33.4772 197.299 33.058L193.388 33.8961ZM197.014 35.5968C197.666 34.8641 198.399 34.3113 199.219 33.9182L197.489 30.3113C196.171 30.9436 195.014 31.8263 194.025 32.9393L197.014 35.5968ZM199.209 33.9227C200.051 33.5247 200.851 33.3457 201.628 33.3457V29.3457C200.207 29.3457 198.825 29.6794 197.499 30.3068L199.209 33.9227ZM201.628 33.3457C203.23 33.3457 204.216 33.7876 204.863 34.4425L207.71 31.6327C206.129 30.0317 204.01 29.3457 201.628 29.3457V33.3457ZM204.881 34.461C205.542 35.113 205.978 36.0884 205.978 37.6519H209.978C209.978 35.2895 209.286 33.1888 207.691 31.6142L204.881 34.461ZM205.978 37.6519V51.209H209.978V37.6519H205.978ZM205.978 51.209C205.978 51.0657 206.011 50.8434 206.145 50.6075C206.279 50.3702 206.457 50.223 206.591 50.1443L208.619 53.592C209.489 53.08 209.978 52.1984 209.978 51.209H205.978ZM206.669 50.1006C206.737 50.0643 206.786 50.048 206.804 50.0427C206.822 50.0371 206.82 50.0391 206.792 50.0437C206.733 50.0535 206.614 50.0659 206.418 50.0659V54.0659C207.037 54.0659 207.843 54.0049 208.54 53.6357L206.669 50.1006ZM206.418 50.0659H206.242V54.0659H206.418V50.0659ZM206.242 50.0659C206.056 50.0659 205.944 50.0538 205.89 50.0447C205.866 50.0405 205.865 50.0389 205.883 50.0446C205.901 50.0501 205.948 50.0661 206.013 50.1006L204.142 53.6357C204.834 54.0022 205.627 54.0659 206.242 54.0659V50.0659ZM206.092 50.1443C206.226 50.223 206.403 50.3702 206.538 50.6075C206.671 50.8434 206.704 51.0657 206.704 51.209H202.704C202.704 52.1984 203.193 53.08 204.064 53.592L206.092 50.1443ZM206.704 51.209V37.9814H202.704V51.209H206.704ZM206.704 37.9814C206.704 36.3729 206.219 34.8583 205.017 33.7318L202.282 36.65C202.486 36.8419 202.704 37.1876 202.704 37.9814H206.704ZM205.048 33.7616C203.882 32.6198 202.343 32.1802 200.727 32.1802V36.1802C201.631 36.1802 202.04 36.4144 202.251 36.6203L205.048 33.7616ZM200.727 32.1802C199.455 32.1802 198.237 32.5437 197.095 33.1803L199.042 36.6742C199.687 36.3147 200.241 36.1802 200.727 36.1802V32.1802ZM197.105 33.1748C195.965 33.8017 194.993 34.6594 194.19 35.718L197.377 38.1355C197.863 37.4949 198.414 37.0196 199.032 36.6797L197.105 33.1748ZM193.783 36.9268V51.209H197.783V36.9268H193.783ZM193.783 51.209C193.783 51.0657 193.816 50.8434 193.95 50.6075C194.084 50.3702 194.262 50.223 194.396 50.1443L196.424 53.592C197.294 53.08 197.783 52.1984 197.783 51.209H193.783ZM194.474 50.1006C194.539 50.0661 194.586 50.0501 194.604 50.0446C194.622 50.0389 194.622 50.0405 194.597 50.0447C194.543 50.0538 194.432 50.0659 194.245 50.0659V54.0659C194.861 54.0659 195.653 54.0022 196.346 53.6357L194.474 50.1006ZM194.245 50.0659H194.091V54.0659H194.245V50.0659ZM217.162 50.5498L217.909 52.405C218.362 52.2226 218.732 51.8809 218.951 51.4442L217.162 50.5498ZM217.206 50.4619L218.995 51.3563C219.422 50.501 219.185 49.4625 218.427 48.8783L217.206 50.4619ZM216.019 49.0996L214.241 50.0143C214.247 50.0275 214.254 50.0407 214.261 50.0538L216.019 49.0996ZM217.821 43.189L218.968 44.8274C219.55 44.4199 219.872 43.7342 219.814 43.0259C219.756 42.3177 219.327 41.6934 218.686 41.3859L217.821 43.189ZM215.316 40.9697L213.594 41.9872L213.601 41.9987L215.316 40.9697ZM215.338 34.4658L213.639 33.4105C213.635 33.4167 213.631 33.4229 213.628 33.4292L215.338 34.4658ZM224.457 31.5654L224.032 33.5198C224.171 33.5501 224.314 33.5654 224.457 33.5654V31.5654ZM232.147 31.8511L230.444 32.8993C230.476 32.9514 230.51 33.0021 230.547 33.0511L232.147 31.8511ZM232.147 34.1143L230.503 32.9758C230.496 32.9855 230.49 32.9951 230.483 33.0049L232.147 34.1143ZM228.829 34.2681L229.004 32.2757C228.276 32.2118 227.571 32.5504 227.165 33.1587L228.829 34.2681ZM228.785 34.334L227.121 33.2246C226.659 33.9178 226.675 34.8248 227.161 35.5013L228.785 34.334ZM229.532 35.916L227.604 36.4463C227.609 36.4657 227.615 36.485 227.621 36.5042L229.532 35.916ZM228.895 40.9697L227.196 39.9144C227.192 39.9206 227.189 39.9268 227.185 39.9331L228.895 40.9697ZM226.28 43.2549L225.413 41.4525L225.404 41.4569L226.28 43.2549ZM222.106 44.0898V42.0898C222.082 42.0898 222.058 42.0903 222.034 42.0911L222.106 44.0898ZM219.315 44.771L218.224 43.095C218.218 43.0989 218.212 43.1029 218.206 43.1069L219.315 44.771ZM219.051 48.3745L217.771 49.911C217.779 49.9178 217.788 49.9246 217.796 49.9313L219.051 48.3745ZM223.556 49.561L223.785 47.5742L223.774 47.573L223.556 49.561ZM224.698 49.6929L224.961 47.7102C224.95 47.7087 224.939 47.7073 224.928 47.7061L224.698 49.6929ZM229.774 51.7363L228.226 53.0028C228.232 53.0098 228.238 53.0167 228.243 53.0235L229.774 51.7363ZM228.324 58.7456L227.211 57.084L227.2 57.0915L228.324 58.7456ZM218.722 40.6182L217.573 42.2553C217.577 42.2584 217.582 42.2615 217.586 42.2646L218.722 40.6182ZM226.149 56.8999L225.207 55.1352C225.2 55.1392 225.192 55.1433 225.185 55.1475L226.149 56.8999ZM226.764 53.2744L227.964 51.6744C227.953 51.6663 227.942 51.6583 227.931 51.6504L226.764 53.2744ZM225.028 52.5493L225.444 50.5931C225.433 50.5908 225.423 50.5886 225.412 50.5865L225.028 52.5493ZM222.347 52.1758L222.118 54.1626C222.125 54.1634 222.131 54.1641 222.138 54.1648L222.347 52.1758ZM220.458 51.9341L220.158 53.9115L220.167 53.9128L220.458 51.9341ZM219.117 51.6265L219.729 49.7224C219.273 49.5756 218.779 49.5978 218.337 49.785L219.117 51.6265ZM221.688 58.2837C219.372 58.2837 217.77 57.9172 216.721 57.3559L214.834 60.8824C216.686 61.8738 219.024 62.2837 221.688 62.2837V58.2837ZM216.721 57.3559C216.267 57.1125 216.015 56.8506 215.866 56.5996C215.717 56.347 215.602 55.989 215.602 55.4497H211.602C211.602 56.5803 211.85 57.6689 212.426 58.6394C213.002 59.6115 213.838 60.3494 214.834 60.8824L216.721 57.3559ZM215.602 55.4497C215.602 54.7214 215.802 54.1635 216.171 53.6874L213.011 51.2354C212.062 52.4586 211.602 53.8929 211.602 55.4497H215.602ZM216.171 53.6874C216.601 53.1338 217.163 52.7054 217.909 52.405L216.415 48.6946C215.051 49.2438 213.9 50.0898 213.011 51.2354L216.171 53.6874ZM218.951 51.4442L218.995 51.3563L215.417 49.5675L215.373 49.6554L218.951 51.4442ZM218.427 48.8783C218.111 48.6342 217.908 48.3876 217.777 48.1454L214.261 50.0538C214.687 50.837 215.275 51.4986 215.984 52.0455L218.427 48.8783ZM217.798 48.1849C217.708 48.0107 217.624 47.7298 217.624 47.2759H213.624C213.624 48.2282 213.803 49.1631 214.241 50.0143L217.798 48.1849ZM217.624 47.2759C217.624 46.2687 218.005 45.5017 218.968 44.8274L216.674 41.5505C214.708 42.927 213.624 44.8847 213.624 47.2759H217.624ZM218.686 41.3859C217.905 41.0107 217.381 40.5248 217.031 39.9407L213.601 41.9987C214.393 43.319 215.54 44.3125 216.955 44.992L218.686 41.3859ZM217.038 39.9523C216.661 39.3151 216.459 38.5869 216.459 37.7178H212.459C212.459 39.251 212.828 40.6907 213.594 41.9872L217.038 39.9523ZM216.459 37.7178C216.459 36.8583 216.664 36.1369 217.048 35.5024L213.628 33.4292C212.84 34.7283 212.459 36.1749 212.459 37.7178H216.459ZM217.037 35.5212C217.412 34.9175 217.982 34.3966 218.842 33.983L217.108 30.3783C215.653 31.0781 214.465 32.0805 213.639 33.4105L217.037 35.5212ZM218.842 33.983C219.666 33.5863 220.746 33.3457 222.15 33.3457V29.3457C220.301 29.3457 218.598 29.6617 217.108 30.3783L218.842 33.983ZM222.15 33.3457C222.905 33.3457 223.527 33.4101 224.032 33.5198L224.882 29.6111C224.038 29.4278 223.122 29.3457 222.15 29.3457V33.3457ZM224.457 33.5654H231.554V29.5654H224.457V33.5654ZM231.554 33.5654C231.471 33.5654 231.278 33.5517 231.043 33.4388C230.79 33.3171 230.582 33.1237 230.444 32.8993L233.85 30.8029C233.277 29.8714 232.331 29.5654 231.554 29.5654V33.5654ZM230.547 33.0511C230.393 32.8462 230.352 32.6757 230.344 32.6417C230.335 32.6026 230.345 32.6229 230.345 32.73H234.345C234.345 32.2114 234.282 31.3645 233.747 30.6511L230.547 33.0511ZM230.345 32.73V33.2134H234.345V32.73H230.345ZM230.345 33.2134C230.345 33.3189 230.336 33.3459 230.342 33.3174C230.348 33.2919 230.381 33.1524 230.503 32.9758L233.792 35.2527C234.273 34.5565 234.345 33.7549 234.345 33.2134H230.345ZM230.483 33.0049C230.64 32.7695 230.86 32.5904 231.099 32.4844C231.317 32.3871 231.49 32.3779 231.554 32.3779V36.3779C232.265 36.3779 233.209 36.1272 233.811 35.2237L230.483 33.0049ZM231.554 32.3779C230.621 32.3779 229.772 32.3431 229.004 32.2757L228.654 36.2604C229.556 36.3395 230.524 36.3779 231.554 36.3779V32.3779ZM227.165 33.1587L227.121 33.2246L230.449 35.4434L230.493 35.3775L227.165 33.1587ZM227.161 35.5013C227.353 35.7674 227.502 36.0769 227.604 36.4463L231.461 35.3857C231.24 34.5833 230.892 33.8381 230.409 33.1667L227.161 35.5013ZM227.621 36.5042C227.735 36.8749 227.796 37.2765 227.796 37.7178H231.796C231.796 36.8993 231.681 36.0997 231.444 35.3278L227.621 36.5042ZM227.796 37.7178C227.796 38.5676 227.589 39.2823 227.196 39.9144L230.594 42.0251C231.403 40.7236 231.796 39.2703 231.796 37.7178H227.796ZM227.185 39.9331C226.826 40.5248 226.27 41.0405 225.413 41.4525L227.147 45.0572C228.605 44.356 229.792 43.3483 230.606 42.0063L227.185 39.9331ZM225.404 41.4569C224.602 41.8478 223.528 42.0898 222.106 42.0898V46.0898C223.965 46.0898 225.673 45.7753 227.156 45.0529L225.404 41.4569ZM222.034 42.0911C220.648 42.1406 219.295 42.3977 218.224 43.095L220.406 46.447C220.595 46.324 221.102 46.127 222.177 46.0886L222.034 42.0911ZM218.206 43.1069C216.885 43.9876 216.392 45.3884 216.392 46.7925H220.392C220.392 46.5367 220.435 46.4312 220.442 46.4146C220.446 46.4075 220.444 46.4136 220.434 46.4245C220.425 46.4355 220.419 46.4389 220.424 46.4351L218.206 43.1069ZM216.392 46.7925C216.392 47.9414 216.782 49.087 217.771 49.911L220.332 46.8381C220.341 46.8461 220.357 46.861 220.372 46.8823C220.388 46.9037 220.398 46.9229 220.403 46.9351C220.413 46.9597 220.392 46.9256 220.392 46.7925H216.392ZM217.796 49.9313C218.533 50.5254 219.396 50.8973 220.318 51.0979L221.168 47.1892C220.743 47.0968 220.479 46.9561 220.307 46.8177L217.796 49.9313ZM220.318 51.0979C221.093 51.2662 222.11 51.4144 223.338 51.5491L223.774 47.573C222.599 47.444 221.741 47.3138 221.168 47.1892L220.318 51.0979ZM223.327 51.5479L224.469 51.6797L224.928 47.7061L223.785 47.5742L223.327 51.5479ZM224.436 51.6755C225.571 51.826 226.452 52.0228 227.11 52.246L228.395 48.4581C227.412 48.1246 226.258 47.882 224.961 47.7102L224.436 51.6755ZM227.11 52.246C227.591 52.4091 227.946 52.66 228.226 53.0028L231.322 50.4699C230.548 49.5235 229.555 48.8516 228.395 48.4581L227.11 52.246ZM228.243 53.0235C228.393 53.2012 228.587 53.5772 228.587 54.395H232.587C232.587 52.9569 232.239 51.5605 231.305 50.4491L228.243 53.0235ZM228.587 54.395C228.587 55.6499 228.139 56.4622 227.211 57.084L229.437 60.4072C231.526 59.0075 232.587 56.9194 232.587 54.395H228.587ZM227.2 57.0915C226.167 57.7935 224.422 58.2837 221.688 58.2837V62.2837C224.784 62.2837 227.463 61.7485 229.448 60.3998L227.2 57.0915ZM222.106 43.4971C223.793 43.4971 225.378 43.1548 226.669 42.2646L224.398 38.9717C223.99 39.2534 223.289 39.4971 222.106 39.4971V43.4971ZM226.669 42.2646C228.215 41.1986 228.808 39.5168 228.808 37.7397H224.808C224.808 38.6288 224.551 38.8659 224.398 38.9717L226.669 42.2646ZM228.808 37.7397C228.808 36.0418 228.258 34.4498 226.885 33.3464C225.596 32.31 223.888 31.9604 222.106 31.9604V35.9604C223.458 35.9604 224.101 36.2407 224.379 36.4642C224.574 36.6205 224.808 36.9182 224.808 37.7397H228.808ZM222.106 31.9604C220.34 31.9604 218.644 32.3121 217.365 33.3551C216.007 34.4618 215.469 36.0514 215.469 37.7397H219.469C219.469 36.9085 219.704 36.6085 219.892 36.4555C220.158 36.2387 220.781 35.9604 222.106 35.9604V31.9604ZM215.469 37.7397C215.469 39.5034 216.046 41.1837 217.573 42.2553L219.871 38.9811C219.728 38.8807 219.469 38.6421 219.469 37.7397H215.469ZM217.586 42.2646C218.871 43.1507 220.437 43.4971 222.106 43.4971V39.4971C220.961 39.4971 220.272 39.2575 219.857 38.9717L217.586 42.2646ZM222.106 59.625C224.026 59.625 225.786 59.3821 227.112 58.6523L225.185 55.1475C224.754 55.3845 223.818 55.625 222.106 55.625V59.625ZM227.09 58.6646C227.786 58.2935 228.406 57.7688 228.843 57.0543C229.282 56.3366 229.467 55.5426 229.467 54.7466H225.467C225.467 54.9173 225.432 54.9656 225.432 54.9657C225.43 54.969 225.391 55.0375 225.207 55.1352L227.09 58.6646ZM229.467 54.7466C229.467 53.542 228.979 52.4354 227.964 51.6744L225.564 54.8744C225.566 54.8758 225.554 54.8671 225.536 54.8459C225.518 54.8242 225.5 54.7973 225.486 54.7681C225.473 54.7392 225.467 54.7178 225.465 54.7097C225.464 54.7025 225.467 54.7131 225.467 54.7466H229.467ZM227.931 51.6504C227.194 51.1206 226.345 50.7848 225.444 50.5931L224.612 54.5055C225.088 54.6068 225.396 54.7544 225.597 54.8984L227.931 51.6504ZM225.412 50.5865C224.656 50.4386 223.697 50.3068 222.557 50.1868L222.138 54.1648C223.224 54.2791 224.052 54.3964 224.644 54.5121L225.412 50.5865ZM222.577 50.189C221.826 50.1024 221.219 50.0245 220.749 49.9554L220.167 53.9128C220.693 53.9902 221.345 54.0734 222.118 54.1626L222.577 50.189ZM220.757 49.9567C220.366 49.8974 220.025 49.8174 219.729 49.7224L218.505 53.5305C219.03 53.6992 219.583 53.8243 220.158 53.9115L220.757 49.9567ZM218.337 49.785C217.278 50.2336 216.322 50.8496 215.622 51.7099C214.894 52.6039 214.525 53.665 214.525 54.8125H218.525C218.525 54.5684 218.587 54.4027 218.724 54.2347C218.888 54.033 219.228 53.7518 219.898 53.468L218.337 49.785ZM214.525 54.8125C214.525 55.628 214.732 56.4314 215.205 57.1463C215.67 57.8495 216.316 58.3534 217.02 58.7079C218.37 59.3883 220.142 59.625 222.106 59.625V55.625C220.349 55.625 219.33 55.393 218.82 55.1358C218.706 55.0786 218.636 55.0289 218.596 54.9949C218.557 54.9621 218.544 54.9427 218.541 54.9396C218.54 54.9375 218.539 54.9355 218.536 54.9262C218.533 54.9153 218.525 54.8806 218.525 54.8125H214.525Z" fill="#2B5DEF"/>
<defs>
<linearGradient id="paint0_linear_671_1776" x1="2.85695" y1="38.0874" x2="50.4033" y2="38.0874" gradientUnits="userSpaceOnUse">
<stop stop-color="#002CA0"/>
<stop offset="1" stop-color="#2B5DEF"/>
</linearGradient>
</defs>
</svg>
