<svg width="127" height="86" viewBox="0 0 127 86" fill="none" xmlns="http://www.w3.org/2000/svg">
<path d="M35.5682 40.338C34.811 37.4989 34.5147 34.556 33.9221 31.6649C33.3295 28.7739 32.6875 26.783 31.7986 24.446C30.9096 22.1089 29.3623 18.3523 27.6997 15.5478C26.1194 12.8818 24.2757 10.337 22.2674 7.99995C20.0945 5.48977 17.543 3.34313 14.8927 1.42154C13.7568 0.65983 12.5387 0.244351 11.2218 0.192417C9.90484 -0.119192 8.58793 -0.0499459 7.28747 0.382844C4.99933 1.04069 2.51365 2.91034 1.37782 5.16085C0.241976 7.41136 -0.465866 10.4755 0.357206 13.1415C0.686435 13.9725 1.01566 14.8034 1.34489 15.6171C2.21735 17.1751 3.40257 18.4215 4.8841 19.3391C5.32856 19.668 5.77302 19.9969 6.21748 20.3604L4.22564 18.7331C6.39855 20.5162 8.32454 22.5763 10.0201 24.8615L8.4727 22.7668C10.4975 25.5539 12.1601 28.5835 13.477 31.8034L12.4893 29.3279C13.477 31.7861 14.2507 34.3136 14.8104 36.9103C15.4523 39.8706 15.7487 42.9175 16.5223 45.8604C17.1808 48.3879 18.9093 50.7423 21.0657 52.0753C23.1892 53.3737 26.3004 53.9276 28.6709 53.114C31.0578 52.3004 33.3624 50.7423 34.5805 48.336C35.7987 45.9297 36.2925 43.0733 35.5682 40.338Z" fill="white"/>
<path d="M81.7541 37.4536C81.8035 30.5116 87.1534 24.9026 93.7709 24.9026C100.388 24.9026 105.738 30.5116 105.788 37.4536H126.891C126.842 18.255 112.043 2.72647 93.7874 2.72647C75.5317 2.72647 60.7164 18.2723 60.6834 37.4536H81.787H81.7541Z" fill="white"/>
<path d="M126.858 37.4189H105.771V74.4485H126.858V37.4189Z" fill="white"/>
<path d="M116.224 85.4413C122.043 85.4413 126.759 80.4809 126.759 74.3619C126.759 68.2429 122.043 63.2825 116.224 63.2825C110.406 63.2825 105.689 68.2429 105.689 74.3619C105.689 80.4809 110.406 85.4413 116.224 85.4413Z" fill="white"/>
<path d="M81.7373 37.3324H60.6502V74.3619H81.7373V37.3324Z" fill="white"/>
<path d="M71.1855 85.1817C77.004 85.1817 81.7209 80.2212 81.7209 74.1022C81.7209 67.9832 77.004 63.0228 71.1855 63.0228C65.367 63.0228 60.6502 67.9832 60.6502 74.1022C60.6502 80.2212 65.367 85.1817 71.1855 85.1817Z" fill="white"/>
<path d="M36.633 37.4536C36.6824 30.5116 42.0323 24.9026 48.6498 24.9026C55.2673 24.9026 60.6173 30.5116 60.6667 37.4536H81.7702C81.7209 18.255 66.922 2.72647 48.6663 2.72647C30.4106 2.72647 15.5788 18.2723 15.5294 37.4536H36.633Z" fill="white"/>
<path d="M81.7373 37.4189H60.6502V74.4485H81.7373V37.4189Z" fill="white"/>
<path d="M71.1032 85.4413C76.9217 85.4413 81.6385 80.4809 81.6385 74.3619C81.6385 68.2429 76.9217 63.2825 71.1032 63.2825C65.2847 63.2825 60.5679 68.2429 60.5679 74.3619C60.5679 80.4809 65.2847 85.4413 71.1032 85.4413Z" fill="white"/>
<path d="M36.6165 37.3324H15.5294L15.5294 74.3619H36.6165V37.3324Z" fill="white"/>
<path d="M26.0647 85.1817C31.8832 85.1817 36.6001 80.2212 36.6001 74.1022C36.6001 67.9832 31.8832 63.0228 26.0647 63.0228C20.2462 63.0228 15.5294 67.9832 15.5294 74.1022C15.5294 80.2212 20.2462 85.1817 26.0647 85.1817Z" fill="white"/>
</svg>
