<svg width="18" height="18" viewBox="0 0 18 18" fill="none" xmlns="http://www.w3.org/2000/svg">
<g clip-path="url(#clip0_558_1496)">
<path fill-rule="evenodd" clip-rule="evenodd" d="M17.6 9.19999C17.6 8.59999 17.6 7.89999 17.4 7.39999H8.90002V10.9H13.7C13.5 12 12.9 13 11.9 13.6V15.9H14.8C16.5 14.3 17.5 12 17.5 9.29999L17.6 9.19999Z" fill="#4285F4"/>
<path fill-rule="evenodd" clip-rule="evenodd" d="M9 18C11.4 18 13.5 17.2 15 15.8L12.1 13.5C11.3 14 10.3 14.4 9.1 14.4C6.8 14.4 4.8 12.8 4.1 10.7H1V13C2.5 15.9 5.5 18 9 18Z" fill="#34A853"/>
<path fill-rule="evenodd" clip-rule="evenodd" d="M4 10.7C3.8 10.2 3.7 9.6 3.7 9C3.7 8.4 3.8 7.8 4 7.3V5H1C0.4 6.2 0 7.6 0 9C0 10.4 0.3 11.8 1 13L4 10.7Z" fill="#FBBC05"/>
<path fill-rule="evenodd" clip-rule="evenodd" d="M9 3.6C10.3 3.6 11.5 4.1 12.4 4.9L15 2.3C13.4 0.8 11.4 0 9 0C5.5 0 2.4 2 1 5L4 7.3C4.7 5.2 6.7 3.6 9 3.6Z" fill="#EA4335"/>
</g>
<defs>
<clipPath id="clip0_558_1496">
<rect width="18" height="18" fill="white"/>
</clipPath>
</defs>
</svg>
