<svg width="51" height="34" viewBox="0 0 51 34" fill="none" xmlns="http://www.w3.org/2000/svg">
<path fill-rule="evenodd" clip-rule="evenodd" d="M6.16404 16.3199L6.17603 16.3885L6.17603 28.9106V29.0084H6.17715C6.22926 31.2686 8.08209 33.0848 10.3601 33.0848C12.6382 33.0848 14.491 31.2686 14.5431 29.0084H14.5508V15.103H14.5573C14.5769 12.4876 16.7016 10.3744 19.3298 10.3744C21.9426 10.3744 24.0579 12.4631 24.1017 15.0574H24.0957V15.09V28.4841C24.0742 28.6558 24.063 28.8308 24.063 29.0084C24.063 31.3138 25.9363 33.1826 28.2471 33.1826C30.1134 33.1826 31.6942 31.9637 32.2334 30.2803C32.3692 29.8903 32.4486 29.4739 32.4619 29.041H32.4705V29.0084V15.103H32.4771H32.4835C32.4834 15.0428 32.4828 14.9826 32.4818 14.9225C32.5952 12.3911 34.6822 10.3744 37.2496 10.3744C39.8734 10.3744 41.9954 12.4806 42.022 15.09H42.0154V28.4841C41.9938 28.6558 41.9827 28.8308 41.9827 29.0084C41.9827 31.3138 43.856 33.1826 46.1668 33.1826C48.4667 33.1826 50.3332 31.3314 50.3508 29.041H50.3902V15.103H50.4033C50.3837 7.86989 44.5064 2.01945 37.2561 2.01945C33.7947 2.01945 30.6447 3.35445 28.2963 5.53613C25.9485 3.35391 22.799 2.01945 19.3363 2.01945C15.7985 2.01945 12.5844 3.41404 10.2183 5.68183C9.79252 5.0995 9.33422 4.53858 8.85202 4.00626C7.98905 3.06054 6.97572 2.25179 5.92315 1.52782C5.47206 1.24084 4.98827 1.08431 4.46526 1.06474C3.94225 0.947342 3.41923 0.973431 2.90276 1.13649C1.99403 1.38433 1.00684 2.08873 0.555743 2.93662C0.104645 3.78451 -0.176474 4.93894 0.150409 5.94336L0.15044 5.94344L0.150448 5.94346L0.150457 5.94348L0.150466 5.9435L0.150474 5.94352L0.150483 5.94354L0.150491 5.94356L0.1505 5.94358L0.150508 5.9436L0.150517 5.94362C0.281234 6.2566 0.411951 6.56958 0.542668 6.87604C0.889163 7.46304 1.35987 7.93264 1.94826 8.27832L1.94827 8.27832C1.99691 8.31247 2.04556 8.34662 2.0942 8.38105C2.65805 8.85883 3.17732 9.38313 3.65403 9.94786C4.25156 10.7793 4.76296 11.6644 5.19127 12.5938C5.47905 13.3452 5.71212 14.1134 5.89047 14.8984C5.99788 15.3682 6.08092 15.8439 6.16404 16.3199Z" fill="url(#paint0_linear_570_1457)"/>
<defs>
<linearGradient id="paint0_linear_570_1457" x1="2.85695" y1="17.0874" x2="50.4033" y2="17.0874" gradientUnits="userSpaceOnUse">
<stop stop-color="#002CA0"/>
<stop offset="1" stop-color="#2B5DEF"/>
</linearGradient>
</defs>
</svg>
